
<svg width="65" height="65" viewBox="0 0 65 65" fill="none" xmlns="http://www.w3.org/2000/svg">
<g clip-path="url(#clip0_12_126)">
<path d="M63.7674 19.1654L46.7047 12.733C46.3912 5.65894 40.5387 0 33.3887 0C26.306 0 20.4605 5.53567 20.0801 12.6031C19.9748 14.5289 20.1096 16.1139 21.0684 18.287L2.57664 11.2991C1.99164 11.0783 1.33555 11.1588 0.82126 11.5144C0.306973 11.87 0 12.4555 0 13.0807V55.2292C0 56.0215 0.490674 56.7312 1.23195 57.0109L22.0502 64.8766C22.0504 64.8766 22.0505 64.8767 22.0508 64.8767L22.0523 64.8773C22.4884 65.0418 22.9773 65.0361 23.397 64.8773L42.9102 57.5139L62.4234 64.8774C63.007 65.0975 63.6632 65.0186 64.1788 64.6621C64.6931 64.3065 65 63.721 65 63.0957V20.9473C65 20.1547 64.5091 19.445 63.7674 19.1654ZM20.8203 60.3417L3.8086 53.9124V15.8347L20.8203 22.264V60.3417ZM41.0059 54.1618L24.6289 60.3417V24.4439C26.3425 27.1152 28.6404 30.5911 31.785 35.5014C32.1351 36.0481 32.7396 36.3788 33.3887 36.3788C34.0378 36.3788 34.6422 36.0482 34.9924 35.5014C37.5016 31.5834 39.4998 28.5393 41.0059 26.2283V54.1618ZM42.901 13.9165C42.8991 13.9435 42.8987 13.9706 42.8981 13.9976C42.7732 17.0309 41.4255 18.5037 33.3888 30.9533C24.5632 17.2746 23.6794 16.5339 23.8829 12.8111C23.8829 12.8105 23.8829 12.81 23.8831 12.8093C24.1542 7.76217 28.3296 3.8086 33.3887 3.8086C38.6388 3.8086 42.9102 8.07993 42.9102 13.3301C42.9102 13.5346 42.9075 13.7288 42.901 13.9165ZM61.1914 60.3417L44.8145 54.1618V20.125C45.5598 18.7835 46.0351 17.7077 46.3243 16.6598L61.1914 22.2645V60.3417Z" fill="#EB4553"/>
<path d="M33.3882 7.61743C30.2381 7.61743 27.6753 10.1802 27.6753 13.3303C27.6753 16.4804 30.2381 19.0432 33.3882 19.0432C36.5383 19.0432 39.1011 16.4804 39.1011 13.3303C39.1011 10.1802 36.5383 7.61743 33.3882 7.61743ZM33.3882 15.2346C32.3382 15.2346 31.4839 14.3804 31.4839 13.3303C31.4839 12.2803 32.3382 11.426 33.3882 11.426C34.4382 11.426 35.2925 12.2803 35.2925 13.3303C35.2925 14.3804 34.4382 15.2346 33.3882 15.2346Z" fill="#EB4553"/>
</g>
<defs>
<clipPath id="clip0_12_126">
<rect width="65" height="65" fill="white"/>
</clipPath>
</defs>
</svg>
