
<svg width="66" height="65" viewBox="0 0 66 65" fill="none" xmlns="http://www.w3.org/2000/svg">
<path d="M58.8564 10.5252L33.9736 0.194095C33.3503 -0.064635 32.6496 -0.064762 32.0264 0.194095L7.14358 10.5252C6.19588 10.9187 5.57812 11.8439 5.57812 12.8701V25.4289C5.57812 42.7216 16.03 58.2768 32.0405 64.8117C32.6554 65.0627 33.3444 65.0627 33.9595 64.8117C49.9697 58.2769 60.4219 42.7217 60.4219 25.4289V12.8701C60.4219 11.8439 59.8042 10.9187 58.8564 10.5252ZM55.3438 25.4289C55.3438 40.1295 46.7109 53.6623 33 59.703C19.6554 53.8237 10.6562 40.5279 10.6562 25.4289V14.5652L33 5.28822L55.3438 14.5652V25.4289ZM30.1936 33.9874L41.107 23.0741C42.0985 22.0826 43.7061 22.0825 44.6977 23.0741C45.6893 24.0657 45.6892 25.6733 44.6976 26.6648L31.9889 39.3735C30.9972 40.3652 29.3896 40.3649 28.3982 39.3735L21.3023 32.2776C20.3107 31.2859 20.3107 29.6783 21.3023 28.6868C22.2939 27.6953 23.9015 27.6952 24.893 28.6868L30.1936 33.9874Z" fill="#EB4553"/>
</svg>
