
<svg width="65" height="65" viewBox="0 0 65 65" fill="none" xmlns="http://www.w3.org/2000/svg">
<path d="M42.3566 32.6047C41.2228 32.0658 40.066 31.6015 38.8889 31.2126C42.7012 28.3511 45.1718 23.7946 45.1718 18.6719C45.1718 10.0304 38.1415 3 29.4999 3C20.8584 3 13.8281 10.0304 13.8281 18.6719C13.8281 23.8003 16.3042 28.3612 20.1237 31.2222C16.6242 32.3743 13.3406 34.167 10.4667 36.5309C5.19679 40.8657 1.53269 46.9119 0.14953 53.556C-0.283982 55.6378 0.235379 57.7761 1.57417 59.4223C2.9064 61.0605 4.88186 62 6.99387 62H35.3769C36.6498 62 37.6816 60.9682 37.6816 59.6953C37.6816 58.4224 36.6498 57.3906 35.3769 57.3906H6.99387C6.01 57.3906 5.41643 56.8414 5.15024 56.5142C4.69057 55.9489 4.51265 55.2132 4.66211 54.4954C7.05379 43.0071 17.187 34.615 28.889 34.332C29.0917 34.3398 29.2953 34.3438 29.4999 34.3438C29.7066 34.3438 29.9123 34.3397 30.1169 34.3318C33.703 34.4159 37.152 35.2343 40.3778 36.7678C41.5275 37.314 42.9023 36.8253 43.4487 35.6756C43.9952 34.5261 43.5063 33.1512 42.3566 32.6047ZM30.0621 29.7202C29.875 29.7169 29.6877 29.7151 29.4999 29.7151C29.314 29.7151 29.128 29.717 28.9422 29.7204C23.1004 29.429 18.4374 24.5848 18.4374 18.6719C18.4374 12.5719 23.4 7.60938 29.4999 7.60938C35.5999 7.60938 40.5624 12.5719 40.5624 18.6719C40.5624 24.5833 35.9018 29.4266 30.0621 29.7202Z" fill="#EB4553"/>
<path d="M56.6953 48.748H50.3574V42.4102C50.3574 41.1373 49.3256 40.1055 48.0527 40.1055C46.7799 40.1055 45.748 41.1373 45.748 42.4102V48.748H39.4102C38.1373 48.748 37.1055 49.7799 37.1055 51.0527C37.1055 52.3256 38.1373 53.3574 39.4102 53.3574H45.748V59.6953C45.748 60.9682 46.7799 62 48.0527 62C49.3256 62 50.3574 60.9682 50.3574 59.6953V53.3574H56.6953C57.9682 53.3574 59 52.3256 59 51.0527C59 49.7799 57.9682 48.748 56.6953 48.748Z" fill="#EB4553"/>
</svg>
