
<svg width="58" height="65" viewBox="0 0 58 65" fill="none" xmlns="http://www.w3.org/2000/svg">
<path fill-rule="evenodd" clip-rule="evenodd" d="M45.6218 33.2187C45.5599 33.2974 45.5091 33.385 39.4159 42.9463C45.9895 43.9566 57.1289 46.9578 57.1289 53.5742C57.1289 61.1315 42.2786 65 28.5645 65C21.2305 65 14.3081 63.9702 9.07232 62.1003C1.57396 59.4223 0 55.9857 0 53.5742C0 46.9589 11.1525 43.9546 17.7128 42.9465L11.5769 33.3183C8.97609 29.7186 7.61719 25.4287 7.61719 21.0742C7.61719 9.50016 17.0318 0 28.5645 0C40.1348 0 49.5117 9.51895 49.5117 21.0742C49.5117 25.4315 48.1807 29.6119 45.6625 33.1638C45.6388 33.1975 45.6302 33.208 45.6218 33.2187ZM14.6925 31.1273C14.7154 31.1587 14.7372 31.1907 14.7582 31.2235L28.5645 52.8873C42.3695 31.2252 42.4485 31.0881 42.5479 30.9678C42.555 30.9593 42.5621 30.9508 42.5742 30.9348C44.6214 28.0359 45.7031 24.6271 45.7031 21.0742C45.7031 11.5539 38.0147 3.80859 28.5645 3.80859C19.0945 3.80859 11.4258 11.5504 11.4258 21.0742C11.4258 24.6214 12.5284 28.15 14.6925 31.1273ZM3.80859 53.5742C3.80859 56.7883 13.5847 61.1914 28.5645 61.1914C43.6321 61.1914 53.3203 56.761 53.3203 53.5742C53.3203 51.414 48.2969 47.862 37.1654 46.4774L30.1702 57.4542C29.8207 58.0027 29.215 58.335 28.5643 58.335C27.9137 58.335 27.3081 58.0029 26.9585 57.4542L19.9631 46.4774C8.83187 47.862 3.80859 51.414 3.80859 53.5742ZM19.043 21.0742C19.043 15.8241 23.3143 11.5527 28.5645 11.5527C33.8146 11.5527 38.0859 15.8241 38.0859 21.0742C38.0859 26.3244 33.8146 30.5957 28.5645 30.5957C23.3143 30.5957 19.043 26.3244 19.043 21.0742ZM22.8516 21.0742C22.8516 24.2243 25.4144 26.7871 28.5645 26.7871C31.7145 26.7871 34.2773 24.2243 34.2773 21.0742C34.2773 17.9241 31.7145 15.3613 28.5645 15.3613C25.4144 15.3613 22.8516 17.9241 22.8516 21.0742Z" fill="#EB4553"/>
</svg>
