
<svg width="60" height="65" viewBox="0 0 60 65" fill="none" xmlns="http://www.w3.org/2000/svg">
<path fill-rule="evenodd" clip-rule="evenodd" d="M8.59362 0H51.4064C52.5191 0.00283822 53.6202 0.225156 54.6467 0.65422C55.6733 1.08328 56.6051 1.71066 57.3888 2.50042C58.1725 3.29017 58.7927 4.22679 59.2139 5.25661C59.6351 6.28644 59.8489 7.38923 59.8432 8.50184V19.6497C59.8375 21.0169 59.2918 22.3265 58.325 23.2933C57.3582 24.2601 56.0486 24.8058 54.6814 24.8115H47.8712V61.378C47.8697 61.9155 47.7266 62.4431 47.4563 62.9076C47.1859 63.3721 46.7979 63.7572 46.3314 64.024C45.8654 64.3009 45.3335 64.447 44.7915 64.447C44.2495 64.447 43.7176 64.3009 43.2516 64.024L35.3137 59.2309C35.1933 59.1559 35.0543 59.1162 34.9124 59.1162C34.7706 59.1162 34.6316 59.1559 34.5112 59.2309L25.5973 64.5662C25.1169 64.8475 24.5708 64.9971 24.014 65C23.4608 64.9999 22.919 64.8419 22.4525 64.5445L13.5819 59.2309C13.4615 59.1559 13.3225 59.1162 13.1807 59.1162C13.0389 59.1162 12.8999 59.1559 12.7795 59.2309L4.79816 64.024C4.33375 64.3051 3.80291 64.4574 3.26015 64.4655C2.71739 64.4735 2.18227 64.3369 1.70975 64.0697C1.23723 63.8026 0.844341 63.4144 0.571432 62.9452C0.298523 62.476 0.155431 61.9426 0.15685 61.3997V8.50184C0.15114 7.38923 0.364993 6.28644 0.786157 5.25661C1.20732 4.22679 1.82752 3.29017 2.61123 2.50042C3.39495 1.71066 4.32677 1.08328 5.35333 0.65422C6.37988 0.225156 7.48101 0.00283822 8.59362 0ZM37.5476 55.5222L43.5336 59.1225V59.0574V7.87287C43.5452 6.6406 43.85 5.42881 44.4228 4.33767H8.59362C8.0498 4.3376 7.5114 4.44575 7.00979 4.6558C6.50817 4.86586 6.05337 5.17363 5.67187 5.56118C5.29037 5.94874 4.9898 6.40833 4.78767 6.91319C4.58554 7.41805 4.48589 7.95808 4.49452 8.50184V59.1441L10.4805 55.5222C11.2835 55.033 12.2049 54.7724 13.1452 54.7686C14.0854 54.7647 15.0089 55.0178 15.8158 55.5005L24.0357 60.4671L32.2773 55.5222C33.0748 55.0487 33.985 54.7989 34.9124 54.7989C35.8399 54.7989 36.7501 55.0487 37.5476 55.5222ZM55.2642 20.2324C55.4187 20.0779 55.5056 19.8682 55.5056 19.6497V8.43677C55.5056 7.34962 55.0737 6.307 54.305 5.53827C53.5362 4.76954 52.4936 4.33767 51.4064 4.33767C50.9367 4.33759 50.4716 4.43114 50.0384 4.61286C49.6052 4.79457 49.2125 5.06081 48.8834 5.39601C48.5543 5.7312 48.2952 6.12864 48.1214 6.56508C47.9477 7.00153 47.8626 7.46824 47.8712 7.93794V20.4738H54.6814C54.9 20.4738 55.1096 20.387 55.2642 20.2324ZM13.7772 16.3746H31.1279C31.7031 16.3746 32.2547 16.6031 32.6615 17.0098C33.0682 17.4166 33.2967 17.9682 33.2967 18.5434C33.2967 19.1186 33.0682 19.6703 32.6615 20.077C32.2547 20.4838 31.7031 20.7123 31.1279 20.7123H13.7772C13.202 20.7123 12.6504 20.4838 12.2436 20.077C11.8369 19.6703 11.6084 19.1186 11.6084 18.5434C11.6084 17.9682 11.8369 17.4166 12.2436 17.0098C12.6504 16.6031 13.202 16.3746 13.7772 16.3746ZM13.7772 27.9782H31.1279C31.7031 27.9782 32.2547 28.2067 32.6615 28.6134C33.0682 29.0201 33.2967 29.5718 33.2967 30.147C33.2967 30.7222 33.0682 31.2739 32.6615 31.6806C32.2547 32.0873 31.7031 32.3158 31.1279 32.3158H13.7772C13.202 32.3158 12.6504 32.0873 12.2436 31.6806C11.8369 31.2739 11.6084 30.7222 11.6084 30.147C11.6084 29.5718 11.8369 29.0201 12.2436 28.6134C12.6504 28.2067 13.202 27.9782 13.7772 27.9782ZM31.1279 39.8415H13.7772C13.202 39.8415 12.6504 40.07 12.2436 40.4768C11.8369 40.8835 11.6084 41.4352 11.6084 42.0104C11.6084 42.5856 11.8369 43.1372 12.2436 43.544C12.6504 43.9507 13.202 44.1792 13.7772 44.1792H31.1279C31.7031 44.1792 32.2547 43.9507 32.6615 43.544C33.0682 43.1372 33.2967 42.5856 33.2967 42.0104C33.2967 41.4352 33.0682 40.8835 32.6615 40.4768C32.2547 40.07 31.7031 39.8415 31.1279 39.8415Z" fill="#EB4553"/>
</svg>
