
<svg width="65" height="65" viewBox="0 0 65 65" fill="none" xmlns="http://www.w3.org/2000/svg">
<g clip-path="url(#clip0_12_154)">
<path d="M16.0825 25.8816H39.5538V29.6846H16.0825V25.8816Z" fill="#EB4553"/>
<path d="M16.0825 35.0947H39.5538V38.8974H16.0825V35.0947Z" fill="#EB4553"/>
<path d="M64.9995 17.5276C64.9995 10.7638 59.4969 5.26074 52.7331 5.26074C47.7656 5.26074 43.4778 8.22867 41.5513 12.4844H7.57901C3.39987 12.4844 -0.000488281 15.8851 -0.000488281 20.0639V44.4012C-0.000488281 48.5807 3.39987 51.9815 7.57901 51.9815H9.6301V62.8677L25.8904 51.9815H47.0602C51.2402 51.9815 54.6405 48.5807 54.6405 44.4012V29.6457C60.501 28.7265 64.9995 23.6424 64.9995 17.5276ZM47.0602 48.1781H24.7351L13.4327 55.7449V48.1781H7.57901C5.49658 48.1781 3.80215 46.484 3.80215 44.4012V20.0639C3.80215 17.9818 5.49658 16.2878 7.57901 16.2878H40.5289C40.4876 16.6953 40.4662 17.109 40.4662 17.5276C40.4662 23.6463 44.9703 28.7336 50.8371 29.6477V44.4012C50.8371 46.484 49.1427 48.1781 47.0602 48.1781ZM52.7331 25.991C48.0663 25.991 44.2697 22.1943 44.2697 17.5276C44.2697 12.8605 48.0663 9.06339 52.7331 9.06339C57.3998 9.06339 61.1969 12.8605 61.1969 17.5276C61.1969 22.1943 57.3998 25.991 52.7331 25.991Z" fill="#EB4553"/>
<path d="M50.8315 13.0273H54.6346V22.0275H50.8315V13.0273Z" fill="#EB4553"/>
</g>
<defs>
<clipPath id="clip0_12_154">
<rect width="65" height="65" fill="white"/>
</clipPath>
</defs>
</svg>
