
<svg width="65" height="65" viewBox="0 0 65 65" fill="none" xmlns="http://www.w3.org/2000/svg">
<path d="M63.0958 30.5955C62.0442 30.5955 61.1915 31.4481 61.1915 32.4998C61.1915 48.3205 48.3208 61.1915 32.5003 61.1915C16.68 61.1913 3.80898 48.3204 3.8086 32.5001C3.80898 16.6795 16.6798 3.8086 32.4998 3.8086C39.5253 3.80847 46.1643 6.31796 51.3963 10.9104L45.418 16.8889C41.792 13.8778 37.2723 12.2383 32.5003 12.2383C21.3279 12.2383 12.2386 21.3277 12.2386 32.5001C12.2386 43.6725 21.3279 52.7618 32.5003 52.7618C43.6726 52.7618 52.762 43.6725 52.762 32.5001C52.762 31.4484 51.9093 30.5958 50.8577 30.5958C49.806 30.5958 48.9534 31.4484 48.9534 32.5001C48.9534 41.5723 41.5725 48.9532 32.5003 48.9532C23.428 48.9532 16.0472 41.5724 16.0472 32.5001C16.0472 23.4277 23.428 16.0469 32.5003 16.0469C36.2536 16.0469 39.8147 17.2963 42.7103 19.5966L36.6663 25.6408C35.4232 24.8827 33.9929 24.4766 32.4996 24.4767C28.0756 24.4767 24.4765 28.076 24.4765 32.4999C24.4765 36.924 28.0759 40.5233 32.4999 40.5233C36.924 40.5233 40.5234 36.9241 40.5234 32.5002C40.5234 31.0071 40.1173 29.577 39.3592 28.3338L55.4808 12.212C55.8526 11.8401 56.0385 11.3527 56.0385 10.8653C56.0385 10.3778 55.8526 9.8903 55.4808 9.51846C49.3423 3.38013 41.1809 -0.00012695 32.4998 3.57589e-09C23.819 3.57589e-09 15.6575 3.38064 9.51922 9.51896C3.38077 15.6573 0.000126953 23.819 0 32.5001C0.000126953 41.181 3.3809 49.3423 9.51922 55.4808C15.6577 61.6192 23.8191 64.9999 32.5003 65C41.1813 65 49.3426 61.6194 55.4811 55.4809C61.6195 49.3422 65.0001 41.1809 65.0001 32.4998C65.0001 31.4481 64.1475 30.5955 63.0958 30.5955ZM32.5001 36.7147C30.1759 36.7147 28.2852 34.8239 28.2852 32.4999C28.2852 30.1759 30.1758 28.2853 32.5002 28.2853C33.6258 28.2852 34.6841 28.7235 35.48 29.5193C35.4802 29.5195 35.4804 29.5196 35.4806 29.5197C35.4807 29.5198 35.4808 29.52 35.4809 29.5201C36.2767 30.3161 36.715 31.3744 36.715 32.5002C36.7149 34.8242 34.8242 36.7147 32.5001 36.7147Z" fill="#EB4553"/>
</svg>
