
<svg width="53" height="34" viewBox="0 0 53 34" fill="none" xmlns="http://www.w3.org/2000/svg">
<path d="M51.0293 1H2.08815C1.56835 1 1.14697 1.42138 1.14697 1.94118V32.0588C1.14697 32.5786 1.56835 33 2.08815 33H51.0293C51.5491 33 51.9705 32.5786 51.9705 32.0588V1.94118C51.9705 1.42138 51.5491 1 51.0293 1Z" fill="white" stroke="#F3F3F3"/>
<path d="M14.1689 24.689V18.1038H21.2954L22.0601 19.0794L22.8505 18.1038H48.7017V24.2348C48.7017 24.2348 48.0273 24.6805 47.2456 24.689H32.928L32.0648 23.6503V24.689H29.2424V22.9143C29.2424 22.9143 28.8557 23.1624 28.0224 23.1624H27.0601V24.689H22.7861L22.0215 23.6923L21.2482 24.689H14.1689Z" fill="white"/>
<path d="M5.85254 13.1374L7.45911 9.47058H10.2384L11.1491 11.5226V9.47058H14.6028L15.1441 10.9549L15.6681 9.47058H31.1711V10.2149C31.1711 10.2149 31.9873 9.47058 33.3232 9.47058L38.3534 9.48741L39.2513 11.5142V9.47058H42.1422L42.937 10.6354V9.47058H45.8537V16.0599H42.937L42.1767 14.8909V16.0599H37.9325L37.5073 15.0212H36.3645L35.9436 16.0599H33.0655C31.9143 16.0599 31.1755 15.3282 31.1755 15.3282V16.0599H26.8282L25.9647 15.0212V16.0599H9.82602L9.40076 15.0212H8.2624L7.83714 16.0599H5.85254V13.1374Z" fill="white"/>
<path d="M8.02731 10.2868L5.8623 15.2193H7.27128L7.67078 14.2311H9.99473L10.3942 15.2193H11.8376L9.67254 10.2868H8.02731ZM8.83061 11.4306L9.53939 13.1546H8.12182L8.83061 11.4306Z" fill="#016FD0"/>
<path d="M11.9824 15.2147V10.2822L13.9885 10.2906L15.1526 13.4696L16.291 10.2822H18.2799V15.2147H17.0212V11.5815L15.6853 15.2147H14.5813L13.2411 11.5815V15.2147H11.9824Z" fill="#016FD0"/>
<path d="M19.1436 15.2147V10.2822H23.2546V11.3839H20.4194V12.2291H23.1859V13.2677H20.4151V14.1424H23.2503V15.2147H19.1436Z" fill="#016FD0"/>
<path d="M23.9805 10.2868V15.2193H25.239V13.4658H25.7674L27.2795 15.2193H28.8174L27.1592 13.4027C27.838 13.3481 28.5424 12.7762 28.5424 11.8889C28.5424 10.8503 27.709 10.291 26.7812 10.291L23.9805 10.2868ZM25.239 11.3885H26.6781C27.0218 11.3885 27.2752 11.6534 27.2752 11.9057C27.2752 12.2337 26.9488 12.423 26.6952 12.423H25.239V11.3885Z" fill="#016FD0"/>
<path d="M30.3419 15.2147H29.0576V10.2822H30.3419V15.2147Z" fill="#016FD0"/>
<path d="M33.3923 15.2151H33.113C31.7684 15.2151 30.9565 14.1807 30.9565 12.772C30.9565 11.3297 31.7643 10.2868 33.4567 10.2868H34.8485V11.4558H33.4094C32.7222 11.4558 32.2324 11.9814 32.2324 12.7846C32.2324 13.7391 32.7909 14.1386 33.5898 14.1386H33.9207L33.3923 15.2151Z" fill="#016FD0"/>
<path d="M36.1327 10.2864L33.9678 15.2147H35.3767L35.7762 14.2265H38.1001L38.4995 15.2147H39.9386L37.7737 10.2822L36.1327 10.2864ZM36.9317 11.4301L37.6404 13.1542H36.2228L36.9317 11.4301Z" fill="#016FD0"/>
<path d="M40.0854 15.2147V10.2822H41.6877L43.7323 13.3813V10.2822H44.991V15.2147H43.4402L41.344 12.0357V15.2147H40.0854Z" fill="#016FD0"/>
<path d="M15.0327 23.8432V18.9107H19.1436V20.0124H16.3085V20.8576H19.0793V21.8963H16.3085V22.771H19.1436V23.8432H15.0327Z" fill="#016FD0"/>
<path d="M35.1665 23.8432V18.9107H39.2776V20.0124H36.4424V20.8576H39.2002V21.8963H36.4424V22.771H39.2776V23.8432H35.1665Z" fill="#016FD0"/>
<path d="M19.3026 23.8432L21.3043 21.4086L19.2554 18.9107H20.8403L22.0603 20.454L23.2845 18.9107H24.8096L22.7863 21.3749L24.7923 23.8391H23.2074L22.0217 22.321L20.8661 23.8391L19.3026 23.8432Z" fill="#016FD0"/>
<path d="M24.9429 18.9154V23.8479H26.2359V22.292H27.5633C28.6844 22.292 29.5351 21.7075 29.5351 20.5764C29.5351 19.6386 28.8693 18.9195 27.7265 18.9195H24.9429V18.9154ZM26.2359 20.0298H27.632C27.9928 20.0298 28.2549 20.2483 28.2549 20.5973C28.2549 20.9254 27.9972 21.165 27.6277 21.165H26.2359V20.0298Z" fill="#016FD0"/>
<path d="M30.0762 18.9107V23.8432H31.3347V22.0898H31.8631L33.3752 23.8432H34.9131L33.2549 22.0268C33.9337 21.972 34.6382 21.4001 34.6382 20.513C34.6382 19.4743 33.8047 18.915 32.8769 18.915L30.0762 18.9107ZM31.339 20.0168H32.7781C33.1218 20.0168 33.3752 20.2816 33.3752 20.5339C33.3752 20.862 33.0488 21.0511 32.7952 21.0511H31.339V20.0168Z" fill="#016FD0"/>
<path d="M39.8622 23.8436V22.7714H42.3836C42.7574 22.7714 42.9163 22.5738 42.9163 22.3594C42.9163 22.1532 42.7574 21.943 42.3836 21.943H41.2453C40.2573 21.943 39.7031 21.3544 39.7031 20.467C39.7031 19.6764 40.21 18.9154 41.6792 18.9154H44.1319L43.6035 20.0254H41.4816C41.0778 20.0254 40.9532 20.2357 40.9532 20.4333C40.9532 20.6395 41.1079 20.8623 41.4172 20.8623H42.6114C43.7154 20.8623 44.1922 21.4762 44.1922 22.2794C44.1922 23.1415 43.6595 23.8479 42.5511 23.8479H39.8622V23.8436Z" fill="#016FD0"/>
<path d="M44.4833 23.8436V22.7714H47.0047C47.3785 22.7714 47.5374 22.5738 47.5374 22.3594C47.5374 22.1532 47.3785 21.943 47.0047 21.943H45.8664C44.8784 21.943 44.3242 21.3544 44.3242 20.467C44.3242 19.6764 44.8311 18.9154 46.3003 18.9154H48.753L48.2248 20.0254H46.1027C45.6989 20.0254 45.5743 20.2357 45.5743 20.4333C45.5743 20.6395 45.729 20.8623 46.0383 20.8623H47.2325C48.3365 20.8623 48.8133 21.4762 48.8133 22.2794C48.8133 23.1415 48.2805 23.8479 47.1722 23.8479H44.4833V23.8436Z" fill="#016FD0"/>
</svg>
