
<svg width="66" height="65" viewBox="0 0 66 65" fill="none" xmlns="http://www.w3.org/2000/svg">
<g clip-path="url(#clip0_13_246)">
<path d="M60.2101 8H5.78988C2.87293 8 0.5 10.3729 0.5 13.2899V51.0301C0.5 53.9471 2.87293 56.32 5.78988 56.32H60.2101C63.1271 56.32 65.5 53.9471 65.5 51.0301V13.2899C65.5 10.3729 63.1271 8 60.2101 8ZM61.554 51.0296C61.554 51.771 60.951 52.3741 60.2101 52.3741H5.78988C5.04899 52.3741 4.44596 51.771 4.44596 51.0296V13.2899C4.44596 12.549 5.04899 11.946 5.78988 11.946H60.2101C60.951 11.946 61.554 12.549 61.554 13.2899V51.0296Z" fill="#EB4553"/>
<path d="M26.701 31.6068C28.9668 28.8292 28.8056 24.7191 26.2175 22.131C23.4577 19.3707 18.9663 19.3707 16.206 22.131C13.6179 24.7191 13.4567 28.8292 15.7225 31.6068C13.7369 32.6289 12.0354 34.195 10.8661 36.1677C9.87671 37.8365 9.86084 39.8434 10.8249 41.536C11.7979 43.2434 13.5494 44.2625 15.5112 44.2625H26.9122C28.8736 44.2625 30.6256 43.2434 31.5981 41.536C32.5621 39.8434 32.5468 37.8365 31.5574 36.1677C30.3881 34.195 28.6866 32.6289 26.701 31.6068ZM28.1694 39.5826C28.0439 39.8032 27.6695 40.3165 26.9122 40.3165H15.5112C14.7535 40.3165 14.3796 39.8032 14.2536 39.5826C14.1321 39.3693 13.8891 38.8055 14.2601 38.1796C15.7096 35.7348 18.3731 34.2158 21.2117 34.2158C24.0498 34.2158 26.7134 35.7348 28.1629 38.1796C28.5339 38.8055 28.2914 39.3693 28.1694 39.5826ZM18.9965 24.921C19.607 24.31 20.4094 24.005 21.2117 24.005C22.0141 24.005 22.8165 24.31 23.4275 24.921C24.6489 26.1424 24.6489 28.1305 23.4275 29.3519C22.2055 30.5738 20.2179 30.5738 18.9965 29.3519C17.7746 28.1305 17.7746 26.1424 18.9965 24.921Z" fill="#EB4553"/>
<path d="M55.204 22.7261H41.5347C40.4452 22.7261 39.562 23.6093 39.562 24.6988C39.562 25.7888 40.4452 26.672 41.5347 26.672H55.204C56.2935 26.672 57.1773 25.7888 57.1773 24.6988C57.1773 23.6093 56.2935 22.7261 55.204 22.7261Z" fill="#EB4553"/>
<path d="M55.204 30.187H41.5347C40.4452 30.187 39.562 31.0702 39.562 32.1597C39.562 33.2498 40.4452 34.133 41.5347 34.133H55.204C56.2935 34.133 57.1773 33.2498 57.1773 32.1597C57.1773 31.0702 56.2935 30.187 55.204 30.187Z" fill="#EB4553"/>
<path d="M52.2871 37.6479H41.5347C40.4452 37.6479 39.562 38.5312 39.562 39.6207C39.562 40.7107 40.4452 41.5939 41.5347 41.5939H52.2871C53.3766 41.5939 54.2603 40.7107 54.2603 39.6207C54.2603 38.5312 53.3766 37.6479 52.2871 37.6479Z" fill="#EB4553"/>
</g>
<defs>
<clipPath id="clip0_13_246">
<rect width="65" height="65" fill="white" transform="translate(0.5)"/>
</clipPath>
</defs>
</svg>
