
<svg width="35" height="59" viewBox="0 0 35 59" fill="none" xmlns="http://www.w3.org/2000/svg">
<path d="M19.8343 51.7604C19.8343 52.7727 19.0132 53.5932 18 53.5932C16.9868 53.5932 16.1657 52.7727 16.1657 51.7604C16.1657 50.748 16.9868 49.9276 18 49.9276C19.0132 49.9276 19.8343 50.748 19.8343 51.7604ZM34.5 5.49845V53.5016C34.5 56.5337 32.0317 59 28.997 59H6.00296C2.96859 59 0.5 56.5337 0.5 53.5016V5.49845C0.5 2.46628 2.96859 0 6.00296 0H28.997C32.0317 0 34.5 2.46628 34.5 5.49845ZM4.16864 5.49845V44.3375H30.8314V5.49845C30.8314 4.48782 30.0085 3.66563 28.997 3.66563H6.00296C4.99179 3.66563 4.16864 4.48782 4.16864 5.49845ZM30.8314 53.5016V48.0031H4.16864V53.5016C4.16864 54.5122 4.99179 55.3344 6.00296 55.3344H28.997C30.0085 55.3344 30.8314 54.5122 30.8314 53.5016Z" fill="#EB4553"/>
</svg>
