
<svg width="53" height="34" viewBox="0 0 53 34" fill="none" xmlns="http://www.w3.org/2000/svg">
<path d="M50.8531 1H1.91188C1.39208 1 0.970703 1.42138 0.970703 1.94118V32.0588C0.970703 32.5786 1.39208 33 1.91188 33H50.8531C51.3729 33 51.7942 32.5786 51.7942 32.0588V1.94118C51.7942 1.42138 51.3729 1 50.8531 1Z" fill="white" stroke="#F3F3F3"/>
<path fill-rule="evenodd" clip-rule="evenodd" d="M7.54554 13.3812H5.67627V19.8871H7.52128C8.51682 19.8871 9.22065 19.6686 9.85191 19.1346C10.5803 18.5278 11.0414 17.6051 11.0414 16.634C11.0414 14.7165 9.60898 13.3812 7.54554 13.3812ZM9.0265 18.2849C8.61391 18.6249 8.10375 18.7948 7.27857 18.7948H6.93878V14.4978H7.27857C8.10375 14.4978 8.5894 14.6434 9.0265 15.0075C9.46336 15.3958 9.73056 16.003 9.73056 16.634C9.73033 17.2653 9.46336 17.8966 9.0265 18.2849ZM11.6241 19.8875H12.8864V13.3812H11.6241V19.8875ZM15.9937 15.8817C15.2168 15.5904 14.9984 15.4206 14.9984 15.0563C14.9984 14.6437 15.411 14.3524 15.9451 14.3524C16.3335 14.3524 16.6492 14.498 16.9647 14.8621L17.6445 14.0126C17.0861 13.527 16.4308 13.2843 15.7267 13.2843C14.5615 13.2843 13.6875 14.0855 13.6875 15.1536C13.6875 16.0518 14.1001 16.4889 15.2898 16.9258C15.7998 17.0957 16.0424 17.217 16.1638 17.2898C16.4308 17.4599 16.5521 17.7024 16.5521 17.9696C16.5521 18.5038 16.1395 18.8921 15.5568 18.8921C14.9741 18.8921 14.4644 18.5766 14.1729 18.0182L13.372 18.8193C13.9547 19.6688 14.6586 20.0573 15.6296 20.0573C16.9404 20.0573 17.8632 19.1833 17.8632 17.9211C17.8629 16.877 17.4261 16.4156 15.9937 15.8817ZM18.2515 16.634C18.2515 18.5519 19.7566 20.0328 21.6985 20.0328C22.2327 20.0328 22.7182 19.9355 23.2766 19.6686V18.1633C22.7667 18.673 22.3298 18.8916 21.747 18.8916C20.4847 18.8916 19.5624 17.9449 19.5624 16.6338C19.5624 15.3958 20.509 14.4005 21.6985 14.4005C22.3055 14.4005 22.7667 14.6189 23.2766 15.1288V13.6479C22.7424 13.3564 22.2813 13.2353 21.7228 13.2353C19.805 13.2355 18.2515 14.765 18.2515 16.634Z" fill="black"/>
<path fill-rule="evenodd" clip-rule="evenodd" d="M27.234 13.2353C25.3159 13.2353 23.7622 14.7405 23.7622 16.5853C23.7622 18.5761 25.2431 20.0327 27.234 20.0327C29.1757 20.0327 30.7053 18.5516 30.7053 16.6338C30.7056 14.7405 29.2001 13.2353 27.234 13.2353Z" fill="#DB8135"/>
<path fill-rule="evenodd" clip-rule="evenodd" d="M27.234 13.2353C25.3159 13.2353 23.7622 14.7405 23.7622 16.5853C23.7622 18.5761 25.2431 20.0327 27.234 20.0327C29.1757 20.0327 30.7053 18.5516 30.7053 16.6338C30.7056 14.7405 29.2001 13.2353 27.234 13.2353ZM27.234 16.6338H30.7053H27.234Z" fill="#DB8135"/>
<path fill-rule="evenodd" clip-rule="evenodd" d="M27.234 16.6338H30.7053C30.7053 14.7403 29.1999 13.2353 27.234 13.2353C25.3159 13.2353 23.7622 14.7405 23.7622 16.5853C23.7622 18.5761 25.2431 20.0327 27.234 20.0327C29.1757 20.0327 30.7053 18.5516 30.7053 16.6338H27.234Z" fill="#DB8135"/>
<path fill-rule="evenodd" clip-rule="evenodd" d="M27.234 16.6338H30.7053C30.7053 14.7403 29.1999 13.2353 27.234 13.2353C25.3159 13.2353 23.7622 14.7405 23.7622 16.5853C23.7622 18.5761 25.2431 20.0327 27.234 20.0327C29.1757 20.0327 30.7053 18.5516 30.7053 16.6338H27.234Z" fill="#DB8137"/>
<path fill-rule="evenodd" clip-rule="evenodd" d="M27.234 16.6338H30.7053C30.7053 14.7403 29.1999 13.2353 27.234 13.2353C25.3159 13.2353 23.7622 14.7405 23.7622 16.5853C23.7622 18.5761 25.2431 20.0327 27.234 20.0327C29.1757 20.0327 30.7053 18.5516 30.7053 16.6338H27.234Z" fill="#DC8337"/>
<path fill-rule="evenodd" clip-rule="evenodd" d="M27.234 16.6338H30.7053C30.7053 14.7403 29.1999 13.2353 27.234 13.2353C25.3159 13.2353 23.7622 14.7405 23.7622 16.5853C23.7622 18.5761 25.2431 20.0327 27.234 20.0327C29.1757 20.0327 30.7053 18.5516 30.7053 16.6338H27.234Z" fill="#DC8539"/>
<path fill-rule="evenodd" clip-rule="evenodd" d="M27.234 16.6338H30.7053C30.7053 14.7403 29.1999 13.2353 27.234 13.2353C25.3159 13.2353 23.7622 14.7405 23.7622 16.5853C23.7622 18.5761 25.2431 20.0327 27.234 20.0327C29.1757 20.0327 30.7053 18.5516 30.7053 16.6338H27.234Z" fill="#DC853A"/>
<path fill-rule="evenodd" clip-rule="evenodd" d="M27.234 16.6338H30.7053C30.7053 14.7403 29.1999 13.2353 27.234 13.2353C25.3159 13.2353 23.7622 14.7405 23.7622 16.5853C23.7622 18.5761 25.2431 20.0327 27.234 20.0327C29.1757 20.0327 30.7053 18.5516 30.7053 16.6338H27.234Z" fill="#DC853C"/>
<path fill-rule="evenodd" clip-rule="evenodd" d="M27.234 16.6338H30.7053C30.7053 14.7403 29.1999 13.2353 27.234 13.2353C25.3159 13.2353 23.7622 14.7405 23.7622 16.5853C23.7622 18.5761 25.2431 20.0327 27.234 20.0327C29.1757 20.0327 30.7053 18.5516 30.7053 16.6338H27.234Z" fill="#DD873E"/>
<path fill-rule="evenodd" clip-rule="evenodd" d="M27.234 16.6338H30.7053C30.7053 14.7403 29.1999 13.2353 27.234 13.2353C25.3159 13.2353 23.7622 14.7405 23.7622 16.5853C23.7622 18.5761 25.2431 20.0327 27.234 20.0327C29.1757 20.0327 30.7053 18.5516 30.7053 16.6338H27.234Z" fill="#DD873E"/>
<path fill-rule="evenodd" clip-rule="evenodd" d="M27.234 16.6338H30.7053C30.7053 14.7403 29.1999 13.2353 27.234 13.2353C25.3159 13.2353 23.7622 14.7405 23.7622 16.5853C23.7622 18.5761 25.2431 20.0327 27.234 20.0327C29.1757 20.0327 30.7053 18.5516 30.7053 16.6338H27.234Z" fill="#DD883F"/>
<path fill-rule="evenodd" clip-rule="evenodd" d="M27.234 16.6338H30.7053C30.7053 14.7403 29.1999 13.2353 27.234 13.2353C25.3159 13.2353 23.7622 14.7405 23.7622 16.5853C23.7622 18.5761 25.2431 20.0327 27.234 20.0327C29.1757 20.0327 30.7053 18.5516 30.7053 16.6338H27.234Z" fill="#DD8841"/>
<path fill-rule="evenodd" clip-rule="evenodd" d="M27.234 16.6338H30.7053C30.7053 14.7403 29.1999 13.2353 27.234 13.2353C25.3159 13.2353 23.7622 14.7405 23.7622 16.5853C23.7622 18.5761 25.2431 20.0327 27.234 20.0327C29.1757 20.0327 30.7053 18.5516 30.7053 16.6338H27.234Z" fill="#DE8A41"/>
<path fill-rule="evenodd" clip-rule="evenodd" d="M27.234 16.6338H30.7053C30.7053 14.7403 29.1999 13.2353 27.234 13.2353C25.3159 13.2353 23.7622 14.7405 23.7622 16.5853C23.7622 18.5761 25.2431 20.0327 27.234 20.0327C29.1757 20.0327 30.7053 18.5516 30.7053 16.6338H27.234Z" fill="#DE8A43"/>
<path fill-rule="evenodd" clip-rule="evenodd" d="M27.234 16.6338H30.7053C30.7053 14.7403 29.1999 13.2353 27.234 13.2353C25.3159 13.2353 23.7622 14.7405 23.7622 16.5853C23.7622 18.5761 25.2431 20.0327 27.234 20.0327C29.1757 20.0327 30.7053 18.5516 30.7053 16.6338H27.234Z" fill="#DE8A44"/>
<path fill-rule="evenodd" clip-rule="evenodd" d="M27.234 16.6338H30.7053C30.7053 14.7403 29.1999 13.2353 27.234 13.2353C25.3159 13.2353 23.7622 14.7405 23.7622 16.5853C23.7622 18.5761 25.2431 20.0327 27.234 20.0327C29.1757 20.0327 30.7053 18.5516 30.7053 16.6338H27.234Z" fill="#DE8C46"/>
<path fill-rule="evenodd" clip-rule="evenodd" d="M27.2339 16.634H30.7054H27.2339ZM30.7056 16.634C30.7056 16.6046 30.705 16.5751 30.7041 16.5457V16.5445C30.7035 16.5156 30.7024 16.4867 30.7009 16.4578V16.4554C30.6994 16.4272 30.6977 16.3989 30.6954 16.3706C30.6954 16.3694 30.6954 16.3683 30.695 16.3671C30.693 16.3393 30.6907 16.3116 30.6881 16.2839C30.6877 16.2823 30.6877 16.2808 30.6877 16.2792C30.6849 16.252 30.6817 16.2249 30.6781 16.1979V16.1972C30.6747 16.1714 30.6711 16.1456 30.6674 16.1199C30.667 16.1173 30.6664 16.1147 30.6664 16.1121C30.6623 16.0867 30.6581 16.0615 30.6534 16.036L30.6521 16.0275L30.6448 15.9863L30.6352 15.9375L30.6301 15.9142C30.6259 15.8944 30.622 15.8746 30.6173 15.8551C30.6154 15.8459 30.6126 15.8369 30.6109 15.8277L30.597 15.7726L30.583 15.7207L30.5762 15.6953C30.5712 15.6772 30.5655 15.6593 30.5606 15.6413L30.5523 15.6133C30.1226 14.2271 28.8302 13.2353 27.2341 13.2353C25.8293 13.2353 24.6203 14.043 24.0737 15.2C23.8711 15.6426 23.7651 16.1233 23.7627 16.61C23.7653 17.0306 23.8342 17.4272 23.96 17.7908L23.9707 17.8212L23.9754 17.8339C24.1094 18.1973 24.3033 18.5356 24.5491 18.8349C25.1737 19.5799 26.1247 20.0327 27.2341 20.0327C28.8117 20.0327 30.117 19.0551 30.5514 17.6598L30.5736 17.5848V17.5846C30.637 17.3616 30.6777 17.1327 30.6952 16.9015L30.6956 16.901C30.6975 16.8718 30.6999 16.8423 30.701 16.8129V16.8127C30.7041 16.7532 30.7056 16.6936 30.7056 16.634Z" fill="#DF8E47"/>
<path fill-rule="evenodd" clip-rule="evenodd" d="M27.2342 16.6338H30.6811C30.6811 15.3133 29.925 14.1703 28.8255 13.5991C28.3525 13.3663 27.8135 13.2353 27.2342 13.2353C26.4884 13.2353 25.7987 13.4631 25.2328 13.8491C24.3594 14.4695 23.7866 15.4844 23.7866 16.6338C23.7866 17.8982 24.4799 19.0111 25.5039 19.611C26.0065 19.8817 26.5934 20.0327 27.2342 20.0327C28.0419 20.0327 28.7777 19.7763 29.3622 19.3394C30.1633 18.706 30.6811 17.7265 30.6811 16.6338H27.2342Z" fill="#DF8E48"/>
<path fill-rule="evenodd" clip-rule="evenodd" d="M27.2339 16.6338H30.6323C30.6323 14.7646 29.1031 13.2353 27.2339 13.2353C27.2046 13.2353 27.1756 13.2358 27.1466 13.2365H27.1443C25.3162 13.2843 23.835 14.7947 23.835 16.6338C23.8342 17.3455 24.055 18.0397 24.4669 18.6201C24.8787 19.2005 25.4611 19.6381 26.1331 19.8723C26.4757 19.9767 26.845 20.0328 27.2337 20.0328C27.7083 20.0328 28.158 19.944 28.567 19.7825C29.181 19.5167 29.7038 19.077 30.0708 18.5174C30.4377 17.9579 30.6329 17.3032 30.6321 16.634H27.2339V16.6338Z" fill="#DF8E4A"/>
<path fill-rule="evenodd" clip-rule="evenodd" d="M27.2341 16.6346H30.6084C30.6084 14.7896 29.1029 13.2601 27.2341 13.2601C25.3645 13.2601 23.8594 14.7896 23.8594 16.6346C23.8583 17.078 23.945 17.5173 24.1143 17.9271C24.2835 18.337 24.532 18.7094 24.8456 19.0229C25.1592 19.3365 25.5317 19.585 25.9415 19.7542C26.3512 19.9234 26.7906 20.01 27.2341 20.0091C27.6774 20.01 28.1167 19.9233 28.5265 19.754C28.9363 19.5848 29.3086 19.3363 29.6222 19.0227C29.9356 18.7092 30.1841 18.3369 30.3533 17.927C30.5225 17.5172 30.6093 17.078 30.6084 16.6346H27.2341Z" fill="#DF904A"/>
<path fill-rule="evenodd" clip-rule="evenodd" d="M27.2339 16.632H30.5839C30.5839 14.787 29.0784 13.306 27.2339 13.306C25.3886 13.306 23.8833 14.787 23.8833 16.632C23.8833 18.4772 25.3886 19.9822 27.2339 19.9822C29.0784 19.9822 30.5839 18.477 30.5839 16.632H27.2339Z" fill="#E0914C"/>
<path fill-rule="evenodd" clip-rule="evenodd" d="M27.2345 16.6332H30.5599C30.5599 14.8125 29.0549 13.3318 27.2345 13.3318C25.4135 13.3318 23.9082 14.8125 23.9082 16.6332C23.9082 18.4785 25.4135 19.9592 27.2345 19.9592C29.0551 19.9592 30.5599 18.4785 30.5599 16.6332H27.2345Z" fill="#E0914E"/>
<path fill-rule="evenodd" clip-rule="evenodd" d="M27.2346 16.6341H30.5118C30.5118 14.8376 29.0552 13.3566 27.2346 13.3566C25.4136 13.3566 23.957 14.8376 23.957 16.6341C23.957 18.4548 25.4136 19.9355 27.2346 19.9355C29.0554 19.9355 30.5118 18.4548 30.5118 16.6341H27.2346Z" fill="#DF924F"/>
<path fill-rule="evenodd" clip-rule="evenodd" d="M27.2344 16.6353H30.4873C30.4873 14.8388 29.0306 13.3824 27.2344 13.3824C25.4377 13.3824 23.981 14.8391 23.981 16.6353C23.981 18.4315 25.4377 19.8885 27.2344 19.8885C29.0306 19.8885 30.4873 18.4315 30.4873 16.6353H27.2344Z" fill="#E09351"/>
<path fill-rule="evenodd" clip-rule="evenodd" d="M27.2344 16.6327H30.4628C30.4628 14.8605 29.006 13.4283 27.2344 13.4283C25.4619 13.4283 24.0054 14.8605 24.0054 16.6327C24.0054 18.4292 25.4619 19.8616 27.2344 19.8616C29.0064 19.8616 30.4628 18.4292 30.4628 16.6327H27.2344Z" fill="#E09552"/>
<path fill-rule="evenodd" clip-rule="evenodd" d="M27.2345 16.6332H30.4147C30.4147 14.8855 29.0064 13.4531 27.2345 13.4531C25.4621 13.4531 24.0298 14.8855 24.0298 16.6332C24.0298 18.4054 25.4621 19.8377 27.2345 19.8377C29.0065 19.8377 30.4147 18.4054 30.4147 16.6332H27.2345Z" fill="#E09554"/>
<path fill-rule="evenodd" clip-rule="evenodd" d="M27.2343 16.6346H30.39C30.3908 16.22 30.3097 15.8093 30.1514 15.426C29.993 15.0428 29.7606 14.6946 29.4675 14.4014C29.1742 14.1082 28.826 13.8758 28.4427 13.7175C28.0597 13.5591 27.649 13.4781 27.2343 13.4788C26.8196 13.478 26.4089 13.559 26.0256 13.7173C25.6422 13.8756 25.2939 14.108 25.0009 14.4013C24.7076 14.6945 24.4751 15.0427 24.3168 15.426C24.1585 15.8092 24.0774 16.22 24.0781 16.6346C24.0781 18.3826 25.4861 19.815 27.2343 19.815C28.9817 19.815 30.39 18.3826 30.39 16.6346H27.2343Z" fill="#E09555"/>
<path fill-rule="evenodd" clip-rule="evenodd" d="M27.2341 16.6352H30.3654C30.3654 14.9116 28.9576 13.5037 27.2341 13.5037C25.5102 13.5037 24.1021 14.9116 24.1021 16.6352C24.1021 18.3831 25.5102 19.767 27.2341 19.767C27.6456 19.768 28.0533 19.6876 28.4337 19.5306C28.8141 19.3736 29.1597 19.1429 29.4508 18.8519C29.7416 18.5609 29.9722 18.2152 30.1292 17.8348C30.2861 17.4544 30.3665 17.0467 30.3654 16.6352H27.2341Z" fill="#E19756"/>
<path fill-rule="evenodd" clip-rule="evenodd" d="M27.2345 16.6326H30.3416C30.3416 14.9335 28.9582 13.5496 27.2345 13.5496C25.5107 13.5496 24.127 14.9335 24.127 16.6326C24.1258 17.0411 24.2053 17.4457 24.3609 17.8233C24.5168 18.2009 24.7455 18.544 25.0344 18.8327C25.3232 19.1216 25.6664 19.3503 26.044 19.5062C26.4216 19.6618 26.8261 19.7413 27.2345 19.7399C27.643 19.7413 28.0475 19.6616 28.4251 19.506C28.8027 19.3503 29.1457 19.1214 29.4344 18.8326C29.7232 18.5438 29.9521 18.2007 30.1078 17.8232C30.2634 17.4456 30.3429 17.041 30.3416 16.6326H27.2345Z" fill="#E19757"/>
<path fill-rule="evenodd" clip-rule="evenodd" d="M27.234 16.6332H30.2926C30.2926 14.934 28.933 13.5745 27.234 13.5745C25.5344 13.5745 24.1509 14.934 24.1509 16.6332C24.1509 18.3326 25.5346 19.7162 27.234 19.7162C28.9332 19.7162 30.2926 18.3324 30.2926 16.6332H27.234Z" fill="#E29959"/>
<path fill-rule="evenodd" clip-rule="evenodd" d="M27.2344 16.6338H30.2686C30.2686 14.9587 28.909 13.5993 27.2344 13.5993C25.559 13.5993 24.1997 14.9587 24.1997 16.6338C24.1997 18.3089 25.5593 19.6926 27.2344 19.6926C28.909 19.6926 30.2686 18.3089 30.2686 16.6338H27.2344Z" fill="#E2995B"/>
<path fill-rule="evenodd" clip-rule="evenodd" d="M27.2341 16.6352H30.244C30.244 14.9846 28.8843 13.625 27.2341 13.625C25.5831 13.625 24.2236 14.9846 24.2236 16.6352C24.2236 18.3103 25.5833 19.6455 27.2341 19.6455C28.8845 19.6455 30.244 18.3103 30.244 16.6352H27.2341Z" fill="#E29B5B"/>
<path fill-rule="evenodd" clip-rule="evenodd" d="M27.2347 16.6326H30.2207C30.2207 15.006 28.8851 13.671 27.2347 13.671C25.5837 13.671 24.2485 15.006 24.2485 16.6326C24.2485 18.2835 25.5839 19.6185 27.2347 19.6185C28.8851 19.6185 30.2207 18.2832 30.2207 16.6326H27.2347Z" fill="#E29B5D"/>
<path fill-rule="evenodd" clip-rule="evenodd" d="M27.234 16.6331H30.1712C30.172 16.2472 30.0965 15.8649 29.9491 15.5082C29.8017 15.1515 29.5854 14.8274 29.3125 14.5545C29.0397 14.2816 28.7156 14.0653 28.3589 13.9179C28.0022 13.7705 27.6199 13.695 27.234 13.6957C25.6073 13.6957 24.2964 15.0066 24.2964 16.6331C24.2964 18.2597 25.6073 19.595 27.234 19.595C28.8603 19.595 30.1712 18.2597 30.1712 16.6331H27.234Z" fill="#E39D5F"/>
<path fill-rule="evenodd" clip-rule="evenodd" d="M27.2341 16.6346H30.1469C30.1469 15.0323 28.8362 13.7215 27.2341 13.7215C25.6317 13.7215 24.3208 15.0323 24.3208 16.6346C24.3208 18.2612 25.6317 19.572 27.2341 19.572C28.8362 19.572 30.1469 18.2612 30.1469 16.6346H27.2341Z" fill="#E39D61"/>
<path fill-rule="evenodd" clip-rule="evenodd" d="M27.2338 16.6352H30.1226C30.1226 15.0572 28.8358 13.7463 27.2338 13.7463C25.6313 13.7463 24.3447 15.0572 24.3447 16.6352C24.3447 18.2375 25.6313 19.5241 27.2338 19.5241C28.8358 19.5241 30.1226 18.2375 30.1226 16.6352H27.2338Z" fill="#E39F63"/>
<path fill-rule="evenodd" clip-rule="evenodd" d="M27.2346 16.6326H30.0989C30.0989 15.0545 28.8122 13.7922 27.2346 13.7922C25.6562 13.7922 24.3696 15.0545 24.3696 16.6326C24.3696 18.2106 25.6562 19.4975 27.2346 19.4975C28.8122 19.4975 30.0989 18.2106 30.0989 16.6326H27.2346Z" fill="#E39F63"/>
<path fill-rule="evenodd" clip-rule="evenodd" d="M27.2346 16.6332H30.0503C30.0503 15.0797 28.7885 13.8171 27.2346 13.8171C25.6808 13.8171 24.4185 15.0794 24.4185 16.6332C24.4185 18.2112 25.6808 19.4735 27.2346 19.4735C28.7885 19.4735 30.0503 18.2112 30.0503 16.6332H27.2346Z" fill="#E39F64"/>
<path fill-rule="evenodd" clip-rule="evenodd" d="M27.2345 16.6346H30.0262C30.0262 15.1054 28.7882 13.8428 27.2345 13.8428C25.6804 13.8428 24.4424 15.1054 24.4424 16.6346C24.4424 18.1884 25.6804 19.4508 27.2345 19.4508C28.7882 19.4508 30.0262 18.1884 30.0262 16.6346H27.2345Z" fill="#E4A166"/>
<path fill-rule="evenodd" clip-rule="evenodd" d="M27.2341 16.6351H30.0014C30.0014 15.1059 28.7633 13.8676 27.2341 13.8676C25.7043 13.8676 24.4663 15.1056 24.4663 16.6351C24.4663 18.1646 25.7043 19.4028 27.2341 19.4028C28.7633 19.4028 30.0014 18.1646 30.0014 16.6351H27.2341Z" fill="#E4A367"/>
<path fill-rule="evenodd" clip-rule="evenodd" d="M27.2347 16.6326H29.9777C29.9777 15.1276 28.7397 13.9136 27.2347 13.9136C25.7292 13.9136 24.4912 15.1274 24.4912 16.6326C24.4912 18.1621 25.7292 19.3758 27.2347 19.3758C28.7397 19.3758 29.9777 18.1621 29.9777 16.6326H27.2347Z" fill="#E4A369"/>
<path fill-rule="evenodd" clip-rule="evenodd" d="M27.2343 16.6331H29.9291C29.9291 15.1524 28.7395 13.9384 27.2343 13.9384C25.729 13.9384 24.5396 15.1524 24.5396 16.6331C24.5396 18.1383 25.729 19.352 27.2343 19.352C28.7395 19.352 29.9291 18.1383 29.9291 16.6331H27.2343Z" fill="#E4A36A"/>
<path fill-rule="evenodd" clip-rule="evenodd" d="M27.2342 16.6346H29.9043C29.9054 16.2836 29.8369 15.9359 29.7031 15.6115C29.5692 15.2871 29.3727 14.9923 29.1244 14.7442C28.8763 14.496 28.5816 14.2993 28.2572 14.1654C27.9327 14.0316 27.585 13.9632 27.2342 13.9641C26.8831 13.9631 26.5354 14.0314 26.2109 14.1653C25.8864 14.2991 25.5916 14.4957 25.3433 14.7439C25.0953 14.9921 24.8985 15.2869 24.7647 15.6114C24.6309 15.9358 24.5625 16.2836 24.5635 16.6346C24.5635 18.1155 25.7529 19.3292 27.2342 19.3292C28.7146 19.3292 29.9043 18.1155 29.9043 16.6346H27.2342Z" fill="#E5A56C"/>
<path fill-rule="evenodd" clip-rule="evenodd" d="M27.2338 16.6358H29.8796C29.8796 15.1794 28.69 13.9899 27.2338 13.9899C25.7769 13.9899 24.5874 15.1794 24.5874 16.6358C24.5874 18.0925 25.7769 19.282 27.2338 19.282C28.69 19.282 29.8796 18.0925 29.8796 16.6358H27.2338Z" fill="#E5A56C"/>
<path fill-rule="evenodd" clip-rule="evenodd" d="M27.2344 16.6323H29.856C29.856 15.2001 28.6667 14.0349 27.2344 14.0349C25.802 14.0349 24.6123 15.2001 24.6123 16.6323C24.6123 18.089 25.802 19.2539 27.2344 19.2539C28.6667 19.2539 29.856 18.089 29.856 16.6323H27.2344Z" fill="#E5A76E"/>
<path fill-rule="evenodd" clip-rule="evenodd" d="M27.2345 16.6338H29.8077C29.8077 15.2259 28.6668 14.0607 27.2345 14.0607C25.8018 14.0607 24.6611 15.2259 24.6611 16.6338C24.6611 18.0662 25.802 19.2313 27.2345 19.2313C28.6668 19.2313 29.8077 18.0662 29.8077 16.6338H27.2345Z" fill="#E5A770"/>
<path fill-rule="evenodd" clip-rule="evenodd" d="M27.2343 16.6343H29.783C29.783 15.2264 28.6421 14.0855 27.2343 14.0855C25.826 14.0855 24.6851 15.2264 24.6851 16.6343C24.6851 18.0425 25.826 19.1834 27.2343 19.1834C28.6423 19.1834 29.783 18.0425 29.783 16.6343H27.2343Z" fill="#E6A970"/>
<path fill-rule="evenodd" clip-rule="evenodd" d="M27.234 16.6358H29.7584C29.7584 15.2521 28.6175 14.1112 27.234 14.1112C25.8499 14.1112 24.709 15.2521 24.709 16.6358C24.709 18.0439 25.8499 19.1604 27.234 19.1604C28.6175 19.1604 29.7584 18.0439 29.7584 16.6358H27.234Z" fill="#E6A972"/>
<path fill-rule="evenodd" clip-rule="evenodd" d="M27.2346 16.6323H29.7349C29.7349 15.2729 28.6181 14.1562 27.2346 14.1562C25.8505 14.1562 24.7339 15.2729 24.7339 16.6323C24.7335 16.9608 24.7979 17.2862 24.9233 17.5898C25.0488 17.8934 25.2331 18.1692 25.4654 18.4015C25.6977 18.6338 25.9736 18.818 26.277 18.9435C26.5807 19.0689 26.9061 19.1333 27.2346 19.1329C27.5631 19.1333 27.8885 19.0689 28.192 18.9433C28.4956 18.8178 28.7713 18.6337 29.0036 18.4014C29.2359 18.1691 29.4202 17.8932 29.5456 17.5897C29.6711 17.2861 29.7355 16.9607 29.7349 16.6323H27.2346Z" fill="#E6AB74"/>
<path fill-rule="evenodd" clip-rule="evenodd" d="M27.2344 16.6337H29.686C29.6867 16.3115 29.624 15.9923 29.5011 15.6945C29.3782 15.3966 29.1977 15.126 28.9699 14.8982C28.742 14.6704 28.4715 14.4898 28.1737 14.3669C27.8757 14.244 27.5566 14.1811 27.2344 14.182C26.9121 14.181 26.5929 14.2438 26.2949 14.3667C25.9971 14.4896 25.7264 14.6701 25.4985 14.8979C25.2705 15.1258 25.09 15.3964 24.9671 15.6943C24.8442 15.9922 24.7813 16.3114 24.7822 16.6337C24.7822 17.9933 25.8746 19.1099 27.2344 19.1099C28.5934 19.1099 29.686 17.9933 29.686 16.6337H27.2344Z" fill="#E6AB75"/>
<path fill-rule="evenodd" clip-rule="evenodd" d="M27.234 16.6343H29.6613C29.6613 15.2989 28.5692 14.2068 27.234 14.2068C25.8987 14.2068 24.8062 15.2992 24.8062 16.6343C24.8062 17.9939 25.8985 19.0619 27.234 19.0619C27.5531 19.0631 27.8693 19.0011 28.1643 18.8794C28.4592 18.7578 28.7273 18.579 28.953 18.3533C29.1785 18.1277 29.3573 17.8596 29.4789 17.5646C29.6005 17.2695 29.6624 16.9534 29.6613 16.6343H27.234Z" fill="#E7AD77"/>
<path fill-rule="evenodd" clip-rule="evenodd" d="M27.2337 16.6357H29.6369C29.6369 15.3249 28.5688 14.2325 27.2337 14.2325C25.8983 14.2325 24.8301 15.3249 24.8301 16.6357C24.8301 17.9711 25.8981 19.0392 27.2337 19.0392C27.5497 19.0405 27.8627 18.9793 28.1551 18.8589C28.4472 18.7386 28.7126 18.5616 28.9361 18.3382C29.1595 18.1147 29.3364 17.8492 29.4567 17.557C29.577 17.2648 29.6384 16.9517 29.6369 16.6357H27.2337Z" fill="#E7AD77"/>
<path fill-rule="evenodd" clip-rule="evenodd" d="M27.2343 16.6325H29.6132C29.6132 15.3217 28.5451 14.2776 27.2343 14.2776C25.9232 14.2776 24.855 15.3217 24.855 16.6325C24.855 17.9436 25.923 19.0117 27.2343 19.0117C28.545 19.0117 29.6132 17.9436 29.6132 16.6325H27.2343Z" fill="#E8AF79"/>
<path fill-rule="evenodd" clip-rule="evenodd" d="M27.2333 16.6338H29.5634C29.5634 15.3472 28.5195 14.3033 27.2333 14.3033C25.9465 14.3033 24.9023 15.3472 24.9023 16.6338C24.9023 17.9448 25.9463 18.9887 27.2333 18.9887C28.5195 18.9887 29.5634 17.9448 29.5634 16.6338H27.2333Z" fill="#E8AF7B"/>
<path fill-rule="evenodd" clip-rule="evenodd" d="M27.2344 16.6345H29.5404C29.5404 15.3722 28.5208 14.3281 27.2344 14.3281C25.9476 14.3281 24.9277 15.3722 24.9277 16.6345C24.9277 17.921 25.9474 18.9409 27.2344 18.9409C28.5208 18.9409 29.5404 17.9213 29.5404 16.6345H27.2344Z" fill="#E8B17B"/>
<path fill-rule="evenodd" clip-rule="evenodd" d="M27.235 16.6357H29.5168C29.5172 16.3359 29.4582 16.0391 29.3438 15.7621C29.2292 15.4851 29.0611 15.2334 28.8491 15.0215C28.6372 14.8095 28.3855 14.6414 28.1086 14.5269C27.8315 14.4123 27.5347 14.3535 27.235 14.3538C26.9351 14.3534 26.6383 14.4122 26.3612 14.5268C26.0841 14.6413 25.8325 14.8094 25.6205 15.0213C25.4084 15.2333 25.2403 15.485 25.1258 15.762C25.0112 16.039 24.9523 16.3359 24.9526 16.6357C24.9523 16.9355 25.011 17.2324 25.1256 17.5095C25.2403 17.7865 25.4084 18.0382 25.6203 18.2502C25.8325 18.4622 26.0841 18.6303 26.3612 18.7448C26.6383 18.8594 26.9351 18.9181 27.235 18.9177C27.5347 18.9181 27.8315 18.8592 28.1086 18.7446C28.3855 18.63 28.6372 18.462 28.8491 18.25C29.0611 18.038 29.2292 17.7863 29.3438 17.5093C29.4582 17.2323 29.5172 16.9355 29.5168 16.6357H27.235Z" fill="#E8B17D"/>
<path fill-rule="evenodd" clip-rule="evenodd" d="M27.2346 16.6322H29.492C29.492 15.3942 28.4727 14.3989 27.2346 14.3989C25.9964 14.3989 24.9766 15.3942 24.9766 16.6322C24.9766 17.8702 25.9962 18.89 27.2346 18.89C28.4727 18.89 29.492 17.8705 29.492 16.6322H27.2346Z" fill="#E8B17E"/>
<path fill-rule="evenodd" clip-rule="evenodd" d="M27.234 16.6337H29.4432C29.4432 15.4199 28.4476 14.4246 27.234 14.4246C26.9438 14.4236 26.656 14.4801 26.3876 14.5908C26.1191 14.7014 25.8752 14.8641 25.6698 15.0694C25.4644 15.2747 25.3018 15.5187 25.1911 15.7871C25.0804 16.0556 25.0238 16.3433 25.0249 16.6337C25.0249 17.8717 25.9958 18.867 27.234 18.867C28.4476 18.867 29.4432 17.8717 29.4432 16.6337H27.234Z" fill="#E9B381"/>
<path fill-rule="evenodd" clip-rule="evenodd" d="M27.2349 16.6343H29.4193C29.4205 16.347 29.3649 16.0624 29.2556 15.7968C29.1462 15.5312 28.9853 15.2899 28.7822 15.0868C28.5791 14.8836 28.3377 14.7228 28.0721 14.6134C27.8065 14.504 27.5219 14.4483 27.2349 14.4495C26.9474 14.4483 26.6628 14.5039 26.3972 14.6133C26.1316 14.7227 25.8903 14.8836 25.6872 15.0867C25.4839 15.2898 25.3231 15.5311 25.2136 15.7967C25.1042 16.0624 25.0485 16.347 25.0498 16.6343C25.0485 16.9215 25.1042 17.2062 25.2136 17.4718C25.323 17.7375 25.4839 17.9788 25.687 18.182C25.8903 18.3851 26.1316 18.546 26.3972 18.6554C26.6628 18.7648 26.9474 18.8205 27.2349 18.8193C27.5219 18.8204 27.8067 18.7647 28.0723 18.6553C28.3377 18.5459 28.5791 18.385 28.7822 18.1818C28.9853 17.9787 29.1462 17.7374 29.2556 17.4718C29.3649 17.2062 29.4205 16.9215 29.4193 16.6343H27.2349Z" fill="#E9B381"/>
<path fill-rule="evenodd" clip-rule="evenodd" d="M27.2345 16.6357H29.3947C29.3947 15.4463 28.4236 14.4752 27.2345 14.4752C26.0446 14.4752 25.0737 15.4463 25.0737 16.6357C25.0737 17.8252 26.0446 18.7963 27.2345 18.7963C28.4236 18.7963 29.3947 17.8252 29.3947 16.6357H27.2345Z" fill="#E9B583"/>
<path fill-rule="evenodd" clip-rule="evenodd" d="M27.2341 16.6331H29.3704C29.3704 15.4679 28.3989 14.5212 27.2341 14.5212C26.0688 14.5212 25.0977 15.4679 25.0977 16.6331C25.0977 17.8226 26.0688 18.7694 27.2341 18.7694C28.3989 18.7694 29.3704 17.8226 29.3704 16.6331H27.2341Z" fill="#E9B584"/>
<path fill-rule="evenodd" clip-rule="evenodd" d="M27.2344 16.6337H29.3219C29.3219 15.4927 28.3992 14.546 27.2344 14.546C26.069 14.546 25.1465 15.4927 25.1465 16.6337C25.1465 17.7989 26.069 18.7456 27.2344 18.7456C28.3992 18.7456 29.3219 17.7989 29.3219 16.6337H27.2344Z" fill="#EAB786"/>
<path fill-rule="evenodd" clip-rule="evenodd" d="M27.2335 16.6342H29.2968C29.297 16.3632 29.2439 16.0948 29.1402 15.8443C29.0367 15.5939 28.8847 15.3663 28.6931 15.1746C28.5015 14.983 28.2739 14.831 28.0234 14.7274C27.773 14.6237 27.5046 14.5705 27.2335 14.5707C26.0925 14.5707 25.1699 15.4932 25.1699 16.6342C25.1699 17.7751 26.0925 18.6976 27.2335 18.6976C27.5046 18.6978 27.773 18.6446 28.0234 18.541C28.2739 18.4374 28.5015 18.2854 28.6931 18.0937C28.8847 17.9021 29.0367 17.6745 29.1402 17.4241C29.2439 17.1736 29.297 16.9052 29.2968 16.6342H27.2335Z" fill="#EAB788"/>
<path fill-rule="evenodd" clip-rule="evenodd" d="M27.2347 16.6357H29.2734C29.2734 15.519 28.3513 14.5965 27.2347 14.5965C26.1179 14.5965 25.1953 15.519 25.1953 16.6357C25.1953 17.7766 26.1179 18.6748 27.2347 18.6748C28.3513 18.6748 29.2734 17.7766 29.2734 16.6357H27.2347Z" fill="#EBB989"/>
<path fill-rule="evenodd" clip-rule="evenodd" d="M27.2338 16.6322H29.2489C29.2489 15.5398 28.3506 14.6415 27.2338 14.6415C26.117 14.6415 25.2188 15.5398 25.2188 16.6322C25.2182 16.897 25.2698 17.1593 25.3708 17.4041C25.4719 17.6488 25.6203 17.8712 25.8076 18.0584C25.9948 18.2457 26.2172 18.3941 26.462 18.4951C26.7068 18.5961 26.9692 18.6478 27.2338 18.6471C27.4987 18.6477 27.7611 18.596 28.0058 18.495C28.2505 18.394 28.4728 18.2456 28.6601 18.0584C28.8474 17.8711 28.9957 17.6488 29.0968 17.404C29.1977 17.1592 29.2494 16.897 29.2489 16.6322H27.2338Z" fill="#EBB98A"/>
<path fill-rule="evenodd" clip-rule="evenodd" d="M27.2341 16.6336H29.2002C29.2013 16.3751 29.1512 16.1189 29.0528 15.8799C28.9544 15.6408 28.8096 15.4236 28.6268 15.2408C28.444 15.058 28.2268 14.9132 27.9878 14.8148C27.7487 14.7163 27.4925 14.6662 27.2341 14.6673C26.1414 14.6673 25.2676 15.541 25.2676 16.6336C25.2676 17.7262 26.1414 18.6245 27.2341 18.6245C28.3262 18.6245 29.2002 17.7262 29.2002 16.6336H27.2341Z" fill="#EBBB8C"/>
<path fill-rule="evenodd" clip-rule="evenodd" d="M27.2347 16.6342H29.1763C29.1763 15.5661 28.3027 14.6921 27.2347 14.6921C26.1663 14.6921 25.2925 15.5659 25.2925 16.6342C25.2925 17.7266 26.1663 18.5765 27.2347 18.5765C28.3027 18.5765 29.1763 17.7268 29.1763 16.6342H27.2347Z" fill="#EBBB8C"/>
<path fill-rule="evenodd" clip-rule="evenodd" d="M27.2346 16.6357H29.1523C29.1523 15.5918 28.3028 14.7178 27.2346 14.7178C26.1661 14.7178 25.3164 15.5915 25.3164 16.6357C25.3149 16.8879 25.3635 17.138 25.4593 17.3714C25.5553 17.6048 25.6965 17.8168 25.8749 17.9952C26.0532 18.1736 26.2653 18.3148 26.4987 18.4106C26.7322 18.5064 26.9821 18.555 27.2346 18.5535C27.4868 18.555 27.7368 18.5064 27.9702 18.4106C28.2036 18.3148 28.4155 18.1736 28.594 17.9952C28.7724 17.8168 28.9136 17.6047 29.0094 17.3714C29.1052 17.138 29.1538 16.8879 29.1523 16.6357H27.2346Z" fill="#ECBD8F"/>
<path fill-rule="evenodd" clip-rule="evenodd" d="M27.2335 16.6331H29.1268C29.1268 15.5892 28.2774 14.7638 27.2335 14.7638C26.1894 14.7638 25.3398 15.589 25.3398 16.6331C25.3398 17.6772 26.1894 18.5268 27.2335 18.5268C28.2774 18.5268 29.1268 17.6772 29.1268 16.6331H27.2335Z" fill="#ECBD90"/>
<path fill-rule="evenodd" clip-rule="evenodd" d="M27.2339 16.6336H29.0785C29.0786 16.3913 29.031 16.1514 28.9382 15.9275C28.8456 15.7037 28.7099 15.5002 28.5384 15.3289C28.3671 15.1576 28.1638 15.0217 27.94 14.9289C27.7162 14.8362 27.4762 14.7886 27.2339 14.7886C26.9915 14.7885 26.7517 14.8361 26.5277 14.9288C26.3037 15.0215 26.1004 15.1574 25.9289 15.3287C25.7576 15.5001 25.6217 15.7035 25.5289 15.9274C25.4363 16.1513 25.3887 16.3913 25.3887 16.6336C25.3887 17.6532 26.2141 18.5029 27.2339 18.5029C28.2532 18.5029 29.0785 17.6532 29.0785 16.6336H27.2339Z" fill="#ECBF93"/>
<path fill-rule="evenodd" clip-rule="evenodd" d="M27.2336 16.6341H29.0544C29.0544 15.6388 28.2286 14.8134 27.2336 14.8134C26.2137 14.8134 25.4126 15.6388 25.4126 16.6341C25.4126 17.6537 26.2137 18.4549 27.2336 18.4549C28.2286 18.4549 29.0544 17.6537 29.0544 16.6341H27.2336Z" fill="#ECBF93"/>
<path fill-rule="evenodd" clip-rule="evenodd" d="M27.2342 16.6356H29.0303C29.0303 15.6403 28.2292 14.8391 27.2342 14.8391C26.2386 14.8391 25.4375 15.64 25.4375 16.6356C25.4375 17.6311 26.2386 18.432 27.2342 18.432C27.4703 18.4326 27.704 18.3865 27.9222 18.2964C28.1404 18.2063 28.3386 18.074 28.5055 17.907C28.6725 17.7401 28.8048 17.5419 28.8948 17.3236C28.985 17.1055 29.0309 16.8716 29.0303 16.6356H27.2342Z" fill="#EDC195"/>
<path fill-rule="evenodd" clip-rule="evenodd" d="M27.2338 16.6328H29.0059C29.0059 15.6617 28.2051 14.8851 27.2338 14.8851C26.2626 14.8851 25.4614 15.662 25.4614 16.6328C25.4614 17.6038 26.2626 18.405 27.2338 18.405C28.205 18.405 29.0059 17.6038 29.0059 16.6328H27.2338Z" fill="#EDC196"/>
<path fill-rule="evenodd" clip-rule="evenodd" d="M27.2341 16.6336H28.9576C28.9576 15.6868 28.1807 14.9099 27.2341 14.9099C26.2871 14.9099 25.5103 15.6868 25.5103 16.6336C25.5103 17.6046 26.2871 18.3815 27.2341 18.3815C28.1809 18.3815 28.9576 17.6046 28.9576 16.6336H27.2341Z" fill="#EEC397"/>
<path fill-rule="evenodd" clip-rule="evenodd" d="M27.2348 16.6339H28.934C28.934 15.7114 28.1816 14.9348 27.2348 14.9348C26.2878 14.9348 25.5352 15.7116 25.5352 16.6339C25.5337 16.8575 25.5768 17.0791 25.6617 17.2859C25.7466 17.4927 25.8718 17.6806 26.0299 17.8387C26.188 17.9968 26.3759 18.1219 26.5827 18.2068C26.7896 18.2917 27.0111 18.3347 27.2348 18.3333C27.4584 18.3347 27.6799 18.2916 27.8866 18.2067C28.0935 18.1218 28.2814 17.9967 28.4395 17.8386C28.5974 17.6805 28.7226 17.4926 28.8075 17.2858C28.8924 17.079 28.9353 16.8574 28.934 16.6339H27.2348Z" fill="#EEC399"/>
<path fill-rule="evenodd" clip-rule="evenodd" d="M27.2341 16.6356H28.9086C28.9086 15.7131 28.1562 14.9605 27.2341 14.9605C26.3113 14.9605 25.5586 15.7131 25.5586 16.6356C25.5586 17.5584 26.3113 18.3107 27.2341 18.3107C28.1562 18.3107 28.9086 17.5584 28.9086 16.6356H27.2341Z" fill="#EEC59B"/>
<path fill-rule="evenodd" clip-rule="evenodd" d="M27.2337 16.633H28.884C28.884 15.7348 28.1316 15.0065 27.2337 15.0065C26.3351 15.0065 25.5825 15.7348 25.5825 16.633C25.5825 17.5558 26.3351 18.2839 27.2337 18.2839C28.1316 18.2839 28.884 17.5558 28.884 16.633H27.2337Z" fill="#EEC69D"/>
<path fill-rule="evenodd" clip-rule="evenodd" d="M27.2338 16.6335H28.8359C28.8359 15.7598 28.1319 15.0312 27.2338 15.0312C26.3353 15.0312 25.6313 15.7596 25.6313 16.6335C25.6313 17.5318 26.3353 18.2601 27.2338 18.2601C28.1319 18.2601 28.8359 17.5318 28.8359 16.6335H27.2338Z" fill="#EEC69F"/>
<path fill-rule="evenodd" clip-rule="evenodd" d="M27.2336 16.6341H28.811C28.8116 16.4268 28.7709 16.2214 28.6919 16.0298C28.6128 15.8382 28.4965 15.6641 28.3501 15.5175C28.2034 15.3709 28.0293 15.2547 27.8379 15.1755C27.6462 15.0963 27.4409 15.0557 27.2336 15.056C27.0262 15.0556 26.8208 15.0961 26.6292 15.1753C26.4374 15.2544 26.2633 15.3706 26.1166 15.5172C25.97 15.6639 25.8539 15.838 25.7746 16.0296C25.6954 16.2213 25.6549 16.4267 25.6553 16.6341C25.6549 16.8414 25.6954 17.0468 25.7746 17.2385C25.8539 17.4301 25.97 17.6043 26.1166 17.7509C26.2633 17.8975 26.4374 18.0137 26.6292 18.0929C26.8208 18.172 27.0262 18.2125 27.2336 18.2121C27.4409 18.2125 27.6462 18.1719 27.8379 18.0927C28.0295 18.0135 28.2034 17.8973 28.3501 17.7507C28.4967 17.6041 28.6128 17.43 28.6919 17.2384C28.7711 17.0467 28.8116 16.8414 28.811 16.6341H27.2336Z" fill="#EFC89F"/>
<path fill-rule="evenodd" clip-rule="evenodd" d="M27.2341 16.6353H28.788C28.788 15.7858 28.0838 15.0818 27.2341 15.0818C26.3842 15.0818 25.6802 15.7858 25.6802 16.6353C25.6794 16.8395 25.7193 17.0419 25.7971 17.2307C25.875 17.4195 25.9895 17.591 26.1338 17.7355C26.2784 17.8799 26.4499 17.9943 26.6387 18.0721C26.8275 18.15 27.0298 18.1897 27.2341 18.1891C27.4383 18.1897 27.6407 18.1499 27.8295 18.0721C28.0183 17.9942 28.1897 17.8798 28.3341 17.7354C28.4785 17.591 28.5929 17.4194 28.6709 17.2306C28.7488 17.0418 28.7885 16.8395 28.788 16.6353H27.2341Z" fill="#EFC8A1"/>
<path fill-rule="evenodd" clip-rule="evenodd" d="M27.2337 16.6327H28.7631C28.7631 15.8076 28.0832 15.1277 27.2337 15.1277C26.3838 15.1277 25.7041 15.8076 25.7041 16.6327C25.7032 16.8339 25.7421 17.0331 25.8188 17.2191C25.8954 17.4051 26.0081 17.574 26.1502 17.7162C26.2925 17.8584 26.4614 17.971 26.6474 18.0476C26.8333 18.1242 27.0327 18.1631 27.2337 18.1622C27.4349 18.163 27.6341 18.124 27.8201 18.0475C28.006 17.9709 28.1749 17.8583 28.317 17.7161C28.4591 17.5739 28.5719 17.4049 28.6483 17.219C28.7249 17.0331 28.7639 16.8338 28.7631 16.6327H27.2337Z" fill="#EFCAA3"/>
<path fill-rule="evenodd" clip-rule="evenodd" d="M27.2342 16.6333H28.7146C28.716 16.4385 28.6785 16.2454 28.6047 16.0652C28.5307 15.885 28.4218 15.7213 28.284 15.5835C28.1462 15.4458 27.9826 15.3368 27.8023 15.2628C27.6221 15.1888 27.429 15.1514 27.2342 15.1526C27.0394 15.1513 26.8462 15.1888 26.6661 15.2627C26.4858 15.3367 26.322 15.4457 26.1842 15.5834C26.0464 15.7212 25.9372 15.8849 25.8633 16.0651C25.7893 16.2454 25.7518 16.4385 25.753 16.6333C25.753 17.4587 26.4086 18.1386 27.2342 18.1386C28.0594 18.1386 28.7146 17.459 28.7146 16.6333H27.2342Z" fill="#EFCAA3"/>
<path fill-rule="evenodd" clip-rule="evenodd" d="M27.2343 16.6339H28.6905C28.6905 15.8327 28.035 15.1774 27.2343 15.1774C26.4328 15.1774 25.7773 15.8327 25.7773 16.6339C25.7773 17.435 26.4328 18.0906 27.2343 18.0906C28.0348 18.0906 28.6905 17.435 28.6905 16.6339H27.2343Z" fill="#F0CCA6"/>
<path fill-rule="evenodd" clip-rule="evenodd" d="M27.2339 16.6353H28.666C28.666 15.8587 28.0104 15.2031 27.2339 15.2031C26.4326 15.2031 25.8013 15.8587 25.8013 16.6353C25.8013 17.4364 26.4326 18.0677 27.2339 18.0677C28.0104 18.0677 28.666 17.4364 28.666 16.6353H27.2339Z" fill="#F0CCA8"/>
<path fill-rule="evenodd" clip-rule="evenodd" d="M27.2336 16.6327H28.6416C28.6416 15.8561 28.01 15.2491 27.2336 15.2491C26.4567 15.2491 25.8252 15.8561 25.8252 16.6327C25.8256 17.0061 25.9739 17.3642 26.238 17.6282C26.5021 17.8923 26.8601 18.0407 27.2336 18.0409C27.607 18.0406 27.9649 17.8921 28.229 17.6281C28.4929 17.3641 28.6412 17.0061 28.6416 16.6327H27.2336Z" fill="#F1CEAA"/>
<path fill-rule="evenodd" clip-rule="evenodd" d="M27.234 16.6332H28.5931C28.5935 16.4546 28.5584 16.2777 28.4903 16.1127C28.4222 15.9476 28.322 15.7976 28.1957 15.6713C28.0694 15.545 27.9196 15.4449 27.7545 15.3767C27.5894 15.3085 27.4125 15.2735 27.234 15.2739C26.4811 15.2739 25.874 15.8806 25.874 16.6332C25.874 17.3858 26.4811 18.0171 27.234 18.0171C27.9864 18.0171 28.5931 17.3858 28.5931 16.6332H27.234Z" fill="#F1CEAA"/>
<path fill-rule="evenodd" clip-rule="evenodd" d="M27.2343 16.634H28.5694C28.5694 15.9059 27.9624 15.2987 27.2343 15.2987C26.5058 15.2987 25.8989 15.9057 25.8989 16.634C25.8986 16.8095 25.9326 16.9834 25.9996 17.1457C26.0665 17.3079 26.1649 17.4553 26.289 17.5794C26.413 17.7035 26.5604 17.8019 26.7226 17.8688C26.8849 17.9357 27.0588 17.9699 27.2343 17.9694C27.4099 17.9699 27.5836 17.9357 27.7459 17.8687C27.9082 17.8018 28.0555 17.7034 28.1796 17.5794C28.3036 17.4553 28.4021 17.3079 28.4689 17.1456C28.5357 16.9834 28.57 16.8095 28.5694 16.634H27.2343Z" fill="#F1D0AD"/>
<path fill-rule="evenodd" clip-rule="evenodd" d="M27.2339 16.6353H28.5444C28.5444 15.9312 27.9618 15.3245 27.2339 15.3245C26.5053 15.3245 25.9229 15.9312 25.9229 16.6353C25.9221 16.8077 25.9554 16.9785 26.0211 17.1379C26.0868 17.2973 26.1832 17.4421 26.3052 17.564C26.4271 17.6859 26.5719 17.7825 26.7313 17.8481C26.8908 17.9137 27.0615 17.9471 27.2339 17.9464C27.4062 17.947 27.5771 17.9136 27.7363 17.8479C27.8958 17.7823 28.0405 17.6857 28.1623 17.5639C28.2841 17.442 28.3807 17.2972 28.4463 17.1378C28.5119 16.9784 28.5452 16.8076 28.5444 16.6353H27.2339Z" fill="#F1D0AE"/>
<path fill-rule="evenodd" clip-rule="evenodd" d="M27.2345 16.6326H28.5209C28.5209 15.9286 27.9382 15.3704 27.2345 15.3704C26.5305 15.3704 25.9478 15.9286 25.9478 16.6326C25.9478 17.3367 26.5305 17.9192 27.2345 17.9192C27.9382 17.9192 28.5209 17.3365 28.5209 16.6326H27.2345Z" fill="#F2D2B1"/>
<path fill-rule="evenodd" clip-rule="evenodd" d="M27.2343 16.6333H28.4723C28.4723 15.9537 27.9136 15.3953 27.2343 15.3953C26.5546 15.3953 25.9961 15.9537 25.9961 16.6333C25.9961 17.3373 26.5548 17.8956 27.2343 17.8956C27.9136 17.8956 28.4723 17.3371 28.4723 16.6333H27.2343Z" fill="#F2D2B3"/>
<path fill-rule="evenodd" clip-rule="evenodd" d="M27.2339 16.6338H28.4475C28.4475 15.9783 27.9131 15.42 27.2339 15.42C26.5542 15.42 26.02 15.9783 26.02 16.6338C26.02 17.3136 26.5544 17.8475 27.2339 17.8475C27.9133 17.8475 28.4475 17.3134 28.4475 16.6338H27.2339Z" fill="#F3D4B4"/>
<path fill-rule="evenodd" clip-rule="evenodd" d="M27.2338 16.6352H28.4231C28.4225 16.3199 28.2971 16.0177 28.0743 15.7947C27.8512 15.5717 27.5491 15.4462 27.2338 15.4457C26.578 15.4457 26.0439 15.9799 26.0439 16.6352C26.0439 17.2905 26.578 17.8247 27.2338 17.8247C27.5491 17.8241 27.8512 17.6986 28.0741 17.4757C28.2969 17.2527 28.4225 16.9505 28.4231 16.6352H27.2338Z" fill="#F3D4B5"/>
<path fill-rule="evenodd" clip-rule="evenodd" d="M27.2344 16.6327H28.399C28.399 16.0017 27.8652 15.4918 27.2344 15.4918C26.6029 15.4918 26.0688 16.0017 26.0688 16.6327C26.0688 17.2882 26.6031 17.7979 27.2344 17.7979C27.8654 17.7979 28.399 17.288 28.399 16.6327H27.2344Z" fill="#F3D4B7"/>
<path fill-rule="evenodd" clip-rule="evenodd" d="M27.2337 16.6332H28.3501C28.3505 16.4865 28.3219 16.3411 28.266 16.2054C28.2101 16.0698 28.1278 15.9466 28.0241 15.8428C27.9202 15.739 27.7971 15.6568 27.6614 15.6008C27.5258 15.5448 27.3803 15.5162 27.2337 15.5165C27.0869 15.5161 26.9415 15.5447 26.8058 15.6007C26.6701 15.6566 26.5468 15.7388 26.4431 15.8426C26.3392 15.9464 26.2569 16.0697 26.201 16.2053C26.1449 16.341 26.1163 16.4864 26.1167 16.6332C26.1167 17.2645 26.6023 17.7741 27.2337 17.7741C27.8647 17.7741 28.3501 17.2642 28.3501 16.6332H27.2337Z" fill="#F3D6B8"/>
<path fill-rule="evenodd" clip-rule="evenodd" d="M27.2343 16.6337H28.3265C28.327 16.4901 28.2992 16.3478 28.2446 16.215C28.1898 16.0823 28.1094 15.9616 28.008 15.86C27.9063 15.7585 27.7858 15.678 27.6529 15.6233C27.5202 15.5686 27.3779 15.5408 27.2343 15.5413C26.6272 15.5413 26.1416 16.027 26.1416 16.6337C26.1416 17.2405 26.6272 17.7261 27.2343 17.7261C27.3779 17.7267 27.5202 17.6988 27.6529 17.6441C27.7858 17.5894 27.9063 17.509 28.008 17.4074C28.1094 17.3058 28.1898 17.1852 28.2446 17.0524C28.2992 16.9196 28.327 16.7773 28.3265 16.6337H27.2343Z" fill="#F4D8BA"/>
<path fill-rule="evenodd" clip-rule="evenodd" d="M27.234 16.6353H28.3022C28.3022 16.0525 27.8165 15.5671 27.234 15.5671C26.6516 15.5671 26.1655 16.0528 26.1655 16.6353C26.1655 17.2422 26.6516 17.7034 27.234 17.7034C27.8165 17.7034 28.3022 17.242 28.3022 16.6353H27.234Z" fill="#F4D9BC"/>
<path fill-rule="evenodd" clip-rule="evenodd" d="M27.2344 16.6326H28.2783C28.2783 16.0742 27.8172 15.613 27.2344 15.613C26.6518 15.613 26.1904 16.0742 26.1904 16.6326C26.1904 17.2154 26.6518 17.6765 27.2344 17.6765C27.8172 17.6765 28.2783 17.2151 28.2783 16.6326H27.2344Z" fill="#F4D9BE"/>
<path fill-rule="evenodd" clip-rule="evenodd" d="M27.2343 16.6332H28.2294C28.2294 16.0747 27.7925 15.6379 27.2343 15.6379C26.6757 15.6379 26.2388 16.0747 26.2388 16.6332C26.2388 17.1916 26.6757 17.6528 27.2343 17.6528C27.7925 17.6528 28.2294 17.1914 28.2294 16.6332H27.2343Z" fill="#F4DBBF"/>
<path fill-rule="evenodd" clip-rule="evenodd" d="M27.234 16.6338H28.2049C28.2042 16.3765 28.1016 16.1299 27.9197 15.948C27.7377 15.766 27.4911 15.6635 27.234 15.6627C26.6994 15.6627 26.2627 16.0996 26.2627 16.6338C26.2627 17.1679 26.6994 17.6048 27.234 17.6048C27.4911 17.6041 27.7377 17.5015 27.9197 17.3196C28.1016 17.1376 28.2042 16.8911 28.2049 16.6338H27.234Z" fill="#F4DBC0"/>
<path fill-rule="evenodd" clip-rule="evenodd" d="M27.2336 16.6352H28.1805C28.1805 16.1253 27.7434 15.6884 27.2336 15.6884C26.7237 15.6884 26.2866 16.1253 26.2866 16.6352C26.2866 17.1694 26.7237 17.582 27.2336 17.582C27.743 17.582 28.1805 17.1694 28.1805 16.6352H27.2336Z" fill="#F5DDC3"/>
<path fill-rule="evenodd" clip-rule="evenodd" d="M27.2343 16.6326H28.1566C28.1566 16.147 27.7438 15.7344 27.2343 15.7344C26.7243 15.7344 26.3115 16.147 26.3115 16.6326C26.3115 16.8773 26.4088 17.1119 26.5818 17.2849C26.7548 17.4579 26.9894 17.5551 27.2341 17.5551C27.4788 17.5551 27.7133 17.4579 27.8863 17.2849C28.0593 17.1119 28.1566 16.8773 28.1566 16.6326H27.2343Z" fill="#F5DDC3"/>
<path fill-rule="evenodd" clip-rule="evenodd" d="M27.2337 16.6329H28.1071C28.1071 16.1472 27.7192 15.7592 27.2337 15.7592C26.7481 15.7592 26.3594 16.1475 26.3594 16.6329C26.3594 17.1183 26.7481 17.5311 27.2337 17.5311C27.7192 17.5311 28.1071 17.1185 28.1071 16.6329H27.2337Z" fill="#F6DFC6"/>
<path fill-rule="evenodd" clip-rule="evenodd" d="M27.2342 16.6344H28.0837C28.0837 16.173 27.6953 15.7849 27.2342 15.7849C26.7726 15.7849 26.3843 16.1732 26.3843 16.6344C26.3843 17.12 26.7726 17.4841 27.2342 17.4841C27.6953 17.4841 28.0837 17.12 28.0837 16.6344H27.2342Z" fill="#F6DFC7"/>
<path fill-rule="evenodd" clip-rule="evenodd" d="M27.2338 16.6349H28.0591C28.0591 16.1981 27.695 15.8098 27.2338 15.8098C26.7723 15.8098 26.4082 16.1981 26.4082 16.6349C26.4073 16.7436 26.428 16.8514 26.4692 16.9519C26.5103 17.0525 26.5711 17.1439 26.648 17.2207C26.7248 17.2975 26.8161 17.3583 26.9168 17.3994C27.0174 17.4406 27.1252 17.4613 27.2338 17.4604C27.3424 17.4612 27.4501 17.4405 27.5506 17.3993C27.6512 17.3581 27.7426 17.2974 27.8194 17.2205C27.8962 17.1437 27.9568 17.0524 27.9981 16.9518C28.0393 16.8513 28.06 16.7436 28.0591 16.6349H27.2338Z" fill="#F6E1CA"/>
<path fill-rule="evenodd" clip-rule="evenodd" d="M27.2344 16.6324H28.0352C28.0352 16.1955 27.6711 15.8557 27.2344 15.8557C26.7973 15.8557 26.4331 16.1955 26.4331 16.6324C26.4331 17.0695 26.7972 17.4335 27.2344 17.4335C27.6713 17.4335 28.0352 17.0695 28.0352 16.6324H27.2344Z" fill="#F6E1CC"/>
<path fill-rule="evenodd" clip-rule="evenodd" d="M27.2342 16.6332H27.9866C27.9856 16.4339 27.906 16.2431 27.7652 16.1022C27.6244 15.9613 27.4335 15.8816 27.2342 15.8806C27.0349 15.8815 26.844 15.9611 26.703 16.102C26.562 16.2429 26.4824 16.4338 26.4814 16.6332C26.4814 17.0703 26.8214 17.4101 27.2342 17.4101C27.6466 17.4101 27.9866 17.0703 27.9866 16.6332H27.2342Z" fill="#F7E3CD"/>
<path fill-rule="evenodd" clip-rule="evenodd" d="M27.2338 16.6343H27.9619C27.9619 16.246 27.6463 15.9062 27.2338 15.9062C26.821 15.9062 26.5054 16.246 26.5054 16.6343C26.5054 17.0469 26.821 17.3627 27.2338 17.3627C27.6463 17.3627 27.9619 17.0469 27.9619 16.6343H27.2338Z" fill="#F7E3CF"/>
<path fill-rule="evenodd" clip-rule="evenodd" d="M27.234 16.6351H27.9376C27.9374 16.4485 27.8632 16.2696 27.7313 16.1375C27.5995 16.0056 27.4205 15.9313 27.234 15.931C27.0504 15.9358 26.8759 16.012 26.7478 16.1436C26.6196 16.2751 26.5479 16.4515 26.5479 16.6351C26.5479 16.8187 26.6196 16.9951 26.7478 17.1266C26.8759 17.2582 27.0504 17.3344 27.234 17.3392C27.4205 17.339 27.5995 17.2647 27.7315 17.1327C27.8634 17.0007 27.9376 16.8217 27.9376 16.6351H27.234Z" fill="#F7E3D0"/>
<path fill-rule="evenodd" clip-rule="evenodd" d="M27.2341 16.6325H27.9133C27.9133 16.2685 27.5982 15.977 27.2341 15.977C26.8695 15.977 26.5542 16.2685 26.5542 16.6325C26.554 16.7219 26.5715 16.8103 26.6056 16.8929C26.6397 16.9754 26.6897 17.0505 26.753 17.1136C26.816 17.1768 26.8911 17.2269 26.9736 17.261C27.0562 17.2951 27.1447 17.3125 27.2341 17.3123C27.3233 17.3125 27.4118 17.295 27.4942 17.2609C27.5769 17.2268 27.6518 17.1767 27.7149 17.1135C27.7779 17.0504 27.828 16.9754 27.8621 16.8928C27.8961 16.8103 27.9136 16.7218 27.9133 16.6325H27.2341Z" fill="#F8E5D1"/>
<path fill-rule="evenodd" clip-rule="evenodd" d="M27.2344 16.6329H27.8655C27.8655 16.2931 27.5984 16.0018 27.2344 16.0018C27.1514 16.0012 27.0691 16.0171 26.9921 16.0486C26.9153 16.0801 26.8455 16.1265 26.7868 16.1852C26.7278 16.244 26.6813 16.3138 26.6499 16.3906C26.6183 16.4674 26.6025 16.5498 26.603 16.6329C26.603 16.9969 26.87 17.2884 27.2344 17.2884C27.5984 17.2884 27.8655 16.9972 27.8655 16.6329H27.2344Z" fill="#F8E8D4"/>
<path fill-rule="evenodd" clip-rule="evenodd" d="M27.234 16.6336H27.8405C27.8413 16.5537 27.8262 16.4745 27.7959 16.4005C27.7658 16.3265 27.7212 16.2593 27.6647 16.2028C27.6083 16.1462 27.541 16.1015 27.4671 16.0713C27.3931 16.0411 27.3139 16.0259 27.234 16.0266C27.154 16.0259 27.0748 16.041 27.0008 16.0712C26.9268 16.1015 26.8595 16.1461 26.803 16.2027C26.7465 16.2592 26.7019 16.3264 26.6716 16.4004C26.6413 16.4744 26.6262 16.5537 26.627 16.6336C26.6262 16.7135 26.6413 16.7929 26.6716 16.8669C26.7017 16.9409 26.7463 17.0081 26.803 17.0646C26.8595 17.1212 26.9266 17.1659 27.0006 17.1961C27.0748 17.2263 27.154 17.2414 27.234 17.2406C27.3139 17.2414 27.3931 17.2262 27.4671 17.1959C27.541 17.1657 27.6083 17.121 27.6647 17.0645C27.7212 17.008 27.7658 16.9407 27.7959 16.8668C27.8262 16.7928 27.8413 16.7135 27.8405 16.6336H27.234Z" fill="#F8E8D6"/>
<path fill-rule="evenodd" clip-rule="evenodd" d="M27.2346 16.6347H27.8174C27.8174 16.3192 27.5499 16.0763 27.2346 16.0763C26.919 16.0763 26.6519 16.319 26.6519 16.6347C26.6519 16.9505 26.919 17.2175 27.2346 17.2175C27.5499 17.2175 27.8174 16.9505 27.8174 16.6347H27.2346Z" fill="#F8E8D8"/>
<path fill-rule="evenodd" clip-rule="evenodd" d="M27.2345 16.6326H27.7926C27.7926 16.3413 27.5253 16.0984 27.2345 16.0984C26.9427 16.0984 26.6758 16.3413 26.6758 16.6326C26.6758 16.9481 26.9427 17.191 27.2345 17.191C27.5253 17.191 27.7926 16.9483 27.7926 16.6326H27.2345Z" fill="#F9EAD9"/>
<path fill-rule="evenodd" clip-rule="evenodd" d="M27.2341 16.6331H27.7434C27.7434 16.3661 27.5247 16.1232 27.2341 16.1232C26.9423 16.1232 26.7241 16.3659 26.7241 16.6331C26.7241 16.9246 26.9423 17.1673 27.2341 17.1673C27.5247 17.1673 27.7434 16.9246 27.7434 16.6331H27.2341Z" fill="#FAECDC"/>
<path fill-rule="evenodd" clip-rule="evenodd" d="M27.2342 16.6337H27.7198C27.7195 16.505 27.6681 16.3817 27.5771 16.2907C27.486 16.1998 27.3627 16.1484 27.2342 16.148C26.9667 16.148 26.7485 16.3664 26.7485 16.6337C26.7485 16.9009 26.9667 17.1193 27.2342 17.1193C27.3629 17.1189 27.4862 17.0676 27.5771 16.9766C27.6681 16.8856 27.7195 16.7623 27.7198 16.6337H27.2342Z" fill="#FAECDD"/>
<path fill-rule="evenodd" clip-rule="evenodd" d="M27.2345 16.6344H27.6957C27.6957 16.3917 27.4769 16.1976 27.2345 16.1976C26.9915 16.1976 26.7729 16.3917 26.7729 16.6344C26.7729 16.9014 26.9915 17.0958 27.2345 17.0958C27.2951 17.0958 27.355 17.0839 27.4111 17.0607C27.467 17.0375 27.5178 17.0035 27.5607 16.9607C27.6034 16.9178 27.6375 16.867 27.6607 16.811C27.6838 16.755 27.6957 16.695 27.6957 16.6344H27.2345Z" fill="#FAECDF"/>
<path fill-rule="evenodd" clip-rule="evenodd" d="M27.234 16.6323H27.6709C27.6709 16.4138 27.4768 16.2197 27.234 16.2197C26.9911 16.2197 26.7969 16.4138 26.7969 16.6323C26.7969 16.8752 26.9911 17.0694 27.234 17.0694C27.2914 17.0696 27.3484 17.0584 27.4015 17.0365C27.4546 17.0146 27.5029 16.9824 27.5434 16.9418C27.5841 16.9012 27.6163 16.8529 27.6381 16.7998C27.6599 16.7466 27.671 16.6897 27.6709 16.6323H27.234Z" fill="#FAEEE0"/>
<path fill-rule="evenodd" clip-rule="evenodd" d="M27.2346 16.6337H27.6229C27.6229 16.4153 27.4524 16.2454 27.2346 16.2454C27.0159 16.2454 26.8457 16.4153 26.8457 16.6337C26.8457 16.8521 27.0161 17.0463 27.2346 17.0463C27.4528 17.0463 27.6229 16.8521 27.6229 16.6337H27.2346Z" fill="#FBF0E3"/>
<path fill-rule="evenodd" clip-rule="evenodd" d="M27.2341 16.6343H27.5981C27.5981 16.4402 27.4277 16.2703 27.2341 16.2703C27.04 16.2703 26.8696 16.4402 26.8696 16.6343C26.8696 16.8528 27.04 16.9984 27.2341 16.9984C27.4277 16.9984 27.5981 16.8528 27.5981 16.6343H27.2341Z" fill="#FBF1E5"/>
<path fill-rule="evenodd" clip-rule="evenodd" d="M27.2345 16.6345H27.5741C27.5741 16.4646 27.4282 16.319 27.2345 16.319C27.0402 16.319 26.8945 16.4646 26.8945 16.6345C26.8945 16.8289 27.0402 16.9745 27.2345 16.9745C27.4282 16.9745 27.5741 16.8289 27.5741 16.6345H27.2345Z" fill="#FBF1E7"/>
<path fill-rule="evenodd" clip-rule="evenodd" d="M27.2343 16.6323H27.5496C27.5496 16.4624 27.4041 16.341 27.2343 16.341C27.064 16.341 26.9185 16.4624 26.9185 16.6323C26.9185 16.8024 27.064 16.9478 27.2343 16.9478C27.4041 16.9478 27.5496 16.8021 27.5496 16.6323H27.2343Z" fill="#FCF3E8"/>
<path fill-rule="evenodd" clip-rule="evenodd" d="M27.2348 16.6328H27.5017C27.5017 16.4872 27.3801 16.3658 27.2348 16.3658C27.0889 16.3658 26.9673 16.4874 26.9673 16.6328C26.9673 16.8029 27.0889 16.9243 27.2348 16.9243C27.3801 16.9243 27.5017 16.8029 27.5017 16.6328H27.2348Z" fill="#FCF3EA"/>
<path fill-rule="evenodd" clip-rule="evenodd" d="M27.234 16.6342H27.4765C27.4765 16.5129 27.3795 16.3915 27.234 16.3915C27.0882 16.3915 26.9912 16.5129 26.9912 16.6342C26.9912 16.7801 27.0882 16.8772 27.234 16.8772C27.3795 16.8772 27.4765 16.7801 27.4765 16.6342H27.234Z" fill="#FCF5ED"/>
<path fill-rule="evenodd" clip-rule="evenodd" d="M27.2342 16.6344H27.4523C27.4523 16.5131 27.3554 16.4402 27.2342 16.4402C27.1126 16.4402 27.0156 16.5131 27.0156 16.6344C27.0156 16.7557 27.1126 16.8528 27.2342 16.8528C27.263 16.8529 27.2914 16.8473 27.3179 16.8364C27.3445 16.8254 27.3686 16.8094 27.3889 16.789C27.409 16.7687 27.4252 16.7446 27.4361 16.7181C27.4471 16.6915 27.4525 16.6631 27.4523 16.6344H27.2342Z" fill="#FCF5EF"/>
<path fill-rule="evenodd" clip-rule="evenodd" d="M27.2346 16.6322H27.4283C27.4283 16.5351 27.3312 16.4623 27.2346 16.4623C27.1375 16.4623 27.0405 16.5353 27.0405 16.6322C27.0405 16.7292 27.1375 16.8266 27.2346 16.8266C27.3312 16.8266 27.4283 16.7292 27.4283 16.6322H27.2346Z" fill="#FDF8F1"/>
<path fill-rule="evenodd" clip-rule="evenodd" d="M27.2343 16.6337H27.3796C27.3796 16.5608 27.3067 16.488 27.2343 16.488C27.161 16.488 27.0884 16.5608 27.0884 16.6337C27.0884 16.7307 27.1612 16.8038 27.2343 16.8038C27.3071 16.8038 27.3796 16.7307 27.3796 16.6337H27.2343Z" fill="#FDF8F3"/>
<path fill-rule="evenodd" clip-rule="evenodd" d="M27.2339 16.6342H27.3551C27.3551 16.5857 27.3068 16.5129 27.2339 16.5129C27.1607 16.5129 27.1123 16.5857 27.1123 16.6342C27.1123 16.707 27.1607 16.7556 27.2339 16.7556C27.3068 16.7556 27.3551 16.707 27.3551 16.6342H27.2339Z" fill="#FDF8F5"/>
<path fill-rule="evenodd" clip-rule="evenodd" d="M27.2343 16.6344H27.3309C27.3309 16.5858 27.2825 16.5616 27.2343 16.5616C27.1854 16.5616 27.1372 16.5858 27.1372 16.6344C27.1372 16.6829 27.1854 16.7315 27.2343 16.7315C27.2825 16.7315 27.3309 16.6829 27.3309 16.6344H27.2343Z" fill="#FEFBF6"/>
<path fill-rule="evenodd" clip-rule="evenodd" d="M27.2344 16.6322H27.2827C27.2827 16.6079 27.2583 16.5837 27.2344 16.5837C27.2099 16.5837 27.1611 16.6079 27.1611 16.6322C27.1611 16.6808 27.2099 16.705 27.2344 16.705C27.2585 16.705 27.2827 16.6808 27.2827 16.6322H27.2344Z" fill="#FFFFFB"/>
<path fill-rule="evenodd" clip-rule="evenodd" d="M27.2344 16.6336H27.2583C27.2583 16.6336 27.2583 16.6094 27.2344 16.6094C27.21 16.6094 27.21 16.6336 27.21 16.6336C27.21 16.6579 27.21 16.6822 27.2344 16.6822C27.2583 16.6822 27.2583 16.6579 27.2583 16.6336H27.2344Z" fill="white"/>
<path fill-rule="evenodd" clip-rule="evenodd" d="M33.5694 17.7522L31.8457 13.3824H30.4375L33.2053 20.0583H33.885L36.7012 13.3824H35.3173L33.5694 17.7522ZM37.2838 19.8887H40.8768V18.7961H38.5461V17.0481H40.7795V15.9315H38.5461V14.4991H40.8768V13.3824H37.2838V19.8887ZM45.902 15.3002C45.902 14.0865 45.0762 13.3824 43.5957 13.3824H41.7263V19.8885H42.9885V17.2908H43.1584L44.9064 19.8885H46.4601L44.4209 17.145C45.3676 16.951 45.902 16.2955 45.902 15.3002ZM43.3525 16.3928H42.9885V14.4022H43.3768C44.1781 14.4022 44.5904 14.742 44.5904 15.3733C44.5905 16.0285 44.1783 16.3928 43.3525 16.3928ZM46.6436 13.9595C46.6436 14.0094 46.6096 14.0358 46.5403 14.0358H46.5167V13.8866H46.542C46.6107 13.8869 46.6436 13.9104 46.6436 13.9595ZM46.8467 14.3537L46.6581 14.1166C46.7387 14.0959 46.785 14.037 46.785 13.9559C46.785 13.8438 46.7063 13.7804 46.5664 13.7804H46.3839V14.3537H46.519V14.1317L46.6798 14.3537H46.8467ZM47.0879 14.066C47.0879 13.7922 46.8652 13.5664 46.5949 13.5664C46.5292 13.566 46.4639 13.5786 46.4031 13.6035C46.3423 13.6285 46.2869 13.6652 46.2402 13.7117C46.1937 13.7581 46.1568 13.8134 46.1318 13.8742C46.1066 13.935 46.094 14.0002 46.0942 14.066C46.0942 14.3442 46.3178 14.5662 46.5949 14.5662C46.8652 14.566 47.0879 14.3405 47.0879 14.066ZM46.987 14.0674C46.987 14.2922 46.8102 14.4764 46.5926 14.4764C46.3735 14.4764 46.1932 14.2931 46.1932 14.0674C46.1932 13.839 46.3718 13.6576 46.5926 13.6576C46.8102 13.6576 46.987 13.8419 46.987 14.0674Z" fill="black"/>
</svg>
